<svg width="65" height="65" viewBox="0 0 65 65" fill="none" xmlns="http://www.w3.org/2000/svg">
<g clip-path="url(#clip0_2172_5203)">
<path d="M21.8642 19.6513C21.8642 20.7427 21.8642 21.8102 21.8642 22.8776C21.8642 22.9965 21.8469 23.1154 21.8429 23.1755C20.765 23.1755 19.7163 23.1822 18.669 23.1742C16.4798 23.1555 14.2973 23.1742 12.1814 23.8542C11.3406 24.1241 10.5771 24.5169 9.93352 25.1341C8.21067 26.7893 8.57176 29.2315 10.7383 30.2695C11.7683 30.7639 12.8489 31.1513 13.9135 31.5721C15.3033 32.1212 16.7223 32.6021 18.0868 33.2087C19.4938 33.8352 20.725 34.737 21.7323 36.053C21.7603 35.6669 21.7656 35.3569 21.8056 35.051C22.0335 33.353 22.8129 32.6422 24.5358 32.5928C25.4978 32.5661 26.4625 32.5674 27.4245 32.5915C27.8016 32.6008 27.9082 32.4672 27.8842 32.1159C27.8616 31.7805 27.8562 31.4412 27.8842 31.1072C27.9202 30.6957 27.7856 30.5474 27.3512 30.5554C25.8989 30.5808 24.4465 30.5648 22.9942 30.5648C22.8143 30.5648 22.6344 30.5648 22.4225 30.5648V27.3839C22.5358 27.3705 22.6517 27.3451 22.7676 27.3451C24.5251 27.3451 26.284 27.3277 28.0415 27.3611C29.3992 27.3865 30.5438 27.8448 31.0741 29.2221C31.2353 29.6416 31.3406 30.1106 31.3433 30.5581C31.3632 34.9027 31.3552 39.2473 31.3552 43.5905C31.3552 43.6506 31.3472 43.7121 31.3379 43.8296C31.1953 43.8377 31.0514 43.855 30.9062 43.855C28.8116 43.8564 26.7183 43.8604 24.6237 43.855C22.9622 43.851 22.2933 43.338 21.7177 41.632C21.6857 41.7121 21.667 41.8003 21.6204 41.8698C20.4652 43.5932 18.8009 44.3921 16.7756 44.4896C13.8069 44.6326 10.9595 44.1236 8.30394 42.7502C7.66304 42.4189 7.08742 41.9646 6.4625 41.5545C7.07676 40.4122 7.63239 39.3809 8.20801 38.3107C8.34392 38.3922 8.45717 38.455 8.56643 38.5258C10.721 39.9273 13.0781 40.7502 15.6377 40.9493C16.204 40.9934 16.8143 40.9413 17.3539 40.7703C19.0621 40.2319 19.3326 38.7663 18.2133 37.4771C17.8229 37.0269 17.2207 36.7143 16.6584 36.4711C14.7823 35.6602 12.8662 34.9414 10.9941 34.1225C9.96417 33.6709 8.9222 33.1873 8.00548 32.546C5.38989 30.7171 4.63172 28.6383 5.75098 25.3358C6.713 22.4942 8.93152 20.9244 11.7563 20.2017C14.1894 19.5805 19.3099 19.336 21.8642 19.6513ZM27.8789 35.6134H24.9462C24.9235 35.6842 24.8982 35.727 24.8969 35.7697C24.8916 37.4036 24.8929 39.0375 24.8836 40.6714C24.8822 40.9399 25.0101 41.0081 25.2513 41.0054C25.9842 40.9974 26.717 40.988 27.4485 41.0094C27.8016 41.0201 27.8909 40.8758 27.8842 40.5498C27.8669 39.7255 27.8789 38.8999 27.8789 38.0756C27.8789 37.2687 27.8789 36.4631 27.8789 35.6121V35.6134Z" fill="#ADADAD"/>
<path d="M39.3526 21.8701H42.8929V43.9377C42.785 43.9564 42.697 43.9831 42.6104 43.9831C40.4265 43.9724 38.2413 44.0031 36.0588 43.9337C34.3066 43.8775 33.1341 42.6244 33.1247 40.8783C33.1074 37.3781 33.1061 33.8778 33.1274 30.3762C33.1381 28.546 34.3453 27.3155 36.184 27.2287C37.0688 27.1873 37.9562 27.2006 38.8409 27.222C39.214 27.2314 39.3446 27.1231 39.3393 26.7344C39.3193 25.2675 39.3313 23.7993 39.3326 22.3324C39.3326 22.1961 39.3446 22.0598 39.3526 21.8701ZM39.29 40.8382V30.4925H36.6277V40.8382H39.29Z" fill="#ADADAD"/>
<path d="M50.3226 27.372C50.4319 27.3627 50.5358 27.3453 50.6384 27.3466C52.4252 27.3493 54.2133 27.3373 56.0002 27.364C56.721 27.3747 57.4352 27.511 58.0335 27.9599C58.8023 28.537 59.226 29.3399 59.2327 30.2818C59.2606 34.7292 59.2486 39.178 59.25 43.6268C59.25 43.6856 59.2313 43.743 59.2167 43.8325C59.0594 43.8419 58.9115 43.8579 58.7636 43.8579C56.6704 43.8592 54.5784 43.8632 52.4852 43.8579C50.6944 43.8539 49.7417 42.9762 49.7043 41.1846C49.663 39.2141 49.6657 37.2408 49.7217 35.2703C49.7736 33.4614 50.6437 32.6411 52.4572 32.5957C53.5391 32.569 54.6211 32.5903 55.743 32.5903V30.5904H50.3226V27.3734V27.372ZM55.7497 40.9682V35.611H52.8343V40.9682H55.7497Z" fill="#ADADAD"/>
<path d="M48.1267 43.8379H44.6064C44.5971 43.6775 44.5784 43.5172 44.5784 43.3569C44.5771 38.1573 44.5811 32.9577 44.5691 27.7568C44.5691 27.352 44.6584 27.1877 45.0954 27.2037C45.9802 27.2358 46.8676 27.2197 47.7536 27.2104C48.0321 27.2077 48.1654 27.2758 48.164 27.5938C48.156 32.931 48.1574 38.2682 48.156 43.6067C48.156 43.6669 48.1414 43.7256 48.1254 43.8392L48.1267 43.8379Z" fill="#ADADAD"/>
<path d="M46.3306 21.7368C47.4286 21.7342 48.344 22.6293 48.3386 23.7007C48.3333 24.7601 47.3939 25.7073 46.3506 25.7047C45.2953 25.7006 44.3333 24.7548 44.3373 23.7221C44.3413 22.6399 45.246 21.7395 46.332 21.7368H46.3306Z" fill="#ADADAD"/>
</g>
<defs>
<clipPath id="clip0_2172_5203">
<rect width="54" height="25" fill="white" transform="translate(5.25 19.5137)"/>
</clipPath>
</defs>
</svg>
