<svg width="24" height="25" viewBox="0 0 24 25" fill="none" xmlns="http://www.w3.org/2000/svg">
<path d="M14.0156 6.73438C14.2969 7.01562 14.2969 7.53125 14.0156 7.8125L9.28125 12.5L14.0156 17.2344C14.2969 17.5156 14.2969 18.0312 14.0156 18.3125C13.7344 18.5938 13.2188 18.5938 12.9375 18.3125L7.6875 13.0625C7.54688 12.9219 7.5 12.7344 7.5 12.5C7.5 12.3125 7.54688 12.125 7.6875 11.9844L12.9375 6.73438C13.2188 6.45312 13.7344 6.45312 14.0156 6.73438ZM12 0.5C18.6094 0.5 24 5.89062 24 12.5C24 19.1562 18.6094 24.5 12 24.5C5.34375 24.5 0 19.1562 0 12.5C0 5.89062 5.34375 0.5 12 0.5ZM12 23C17.7656 23 22.5 18.3125 22.5 12.5C22.5 6.73438 17.7656 2 12 2C6.1875 2 1.5 6.73438 1.5 12.5C1.5 18.3125 6.1875 23 12 23Z" fill="black"/>
</svg>
