<svg width="65" height="65" viewBox="0 0 65 65" fill="none" xmlns="http://www.w3.org/2000/svg">
<path d="M47.0637 45.3768L47.6191 45.8808L47.6194 45.8805L47.0637 45.3768ZM44.467 47.2452L44.1826 46.5512L44.1785 46.5529L44.467 47.2452ZM30.7712 43.556L30.3288 44.1616L30.3297 44.1623L30.7712 43.556ZM25.5778 39.1227L25.0449 39.6505L25.0501 39.6556L25.5778 39.1227ZM21.1603 33.9452L20.5515 34.3831L20.554 34.3866L21.1603 33.9452ZM18.057 28.546L17.3658 28.8371L17.3667 28.8392L18.057 28.546ZM17.487 20.3127L18.1834 20.5912L18.1849 20.5873L17.487 20.3127ZM19.3078 17.6685L19.8225 18.2141L19.8283 18.2086L19.834 18.203L19.3078 17.6685ZM23.8837 16.4652L23.5591 17.1414L23.5694 17.1461L23.8837 16.4652ZM24.9445 17.3518L24.3278 17.7788L24.3328 17.7858L24.9445 17.3518ZM28.6178 22.5293L28.0061 22.9633L28.0092 22.9676L28.6178 22.5293ZM29.2512 23.6377L28.5569 23.9217L28.5618 23.9331L29.2512 23.6377ZM29.1403 25.7277L28.4997 25.3377L28.4934 25.3481L28.4874 25.3586L29.1403 25.7277ZM28.2537 26.8518L27.7233 26.3215L27.7182 26.3266L27.7132 26.3319L28.2537 26.8518ZM27.0503 28.1027L27.5807 28.633L27.5858 28.6279L27.5908 28.6226L27.0503 28.1027ZM26.8445 29.1002L26.1169 29.2821L26.1272 29.3235L26.1422 29.3635L26.8445 29.1002ZM26.9712 29.4168L26.2596 29.654L26.2808 29.7174L26.3127 29.776L26.9712 29.4168ZM28.4437 31.4435L27.8711 31.928L27.8765 31.9343L28.4437 31.4435ZM30.7395 33.9452L30.2041 34.4704L30.2091 34.4755L30.2141 34.4804L30.7395 33.9452ZM33.257 36.2727L32.7716 36.8444L32.7725 36.8452L33.257 36.2727ZM35.2995 37.7293L34.9486 38.3922L34.9839 38.4109L35.0209 38.4257L35.2995 37.7293ZM35.5845 37.856L35.2891 38.5454L35.305 38.5522L35.3211 38.5583L35.5845 37.856ZM36.6295 37.6502L36.1027 37.1163L36.0992 37.1198L36.6295 37.6502ZM37.8328 36.4627L38.3596 36.9965L38.3632 36.993L37.8328 36.4627ZM38.9728 35.576L39.3197 36.2409L39.3417 36.2295L39.3628 36.2167L38.9728 35.576ZM42.1712 36.0668L42.6053 35.4553L42.5992 35.4509L42.5929 35.4466L42.1712 36.0668ZM47.412 39.7877L46.9778 40.3993L46.9851 40.4043L47.412 39.7877ZM48.2828 40.801L48.9792 40.5225L48.9744 40.5106L48.9693 40.499L48.2828 40.801ZM42.2917 27.2633C42.2917 27.6776 42.6275 28.0133 43.0417 28.0133C43.4559 28.0133 43.7917 27.6776 43.7917 27.2633H42.2917ZM41.1892 23.6692L40.6393 24.1792L40.6409 24.1809L41.1892 23.6692ZM37.5 20.9717C37.0858 20.9717 36.75 21.3075 36.75 21.7217C36.75 22.1359 37.0858 22.4717 37.5 22.4717V20.9717ZM47.8333 27.2635C47.8333 27.6777 48.1691 28.0135 48.5833 28.0135C48.9975 28.0135 49.3333 27.6777 49.3333 27.2635H47.8333ZM37.5 15.4302C37.0858 15.4302 36.75 15.766 36.75 16.1802C36.75 16.5944 37.0858 16.9302 37.5 16.9302V15.4302ZM47.7862 42.036C47.7862 42.4935 47.6848 42.9701 47.4621 43.4416L48.8185 44.0821C49.1342 43.4135 49.2862 42.7185 49.2862 42.036H47.7862ZM47.4621 43.4416C47.2227 43.9486 46.9147 44.4243 46.5079 44.8732L47.6194 45.8805C48.131 45.316 48.5196 44.7151 48.8185 44.0821L47.4621 43.4416ZM46.5082 44.8729C45.7985 45.6551 45.0333 46.2025 44.1826 46.5512L44.7514 47.9392C45.8323 47.4962 46.7772 46.8086 47.6191 45.8808L46.5082 44.8729ZM44.1785 46.5529C43.3234 46.9092 42.3926 47.0968 41.3795 47.0968V48.5968C42.583 48.5968 43.7106 48.3728 44.7555 47.9375L44.1785 46.5529ZM41.3795 47.0968C39.8831 47.0968 38.2573 46.7448 36.5118 46.001L35.9238 47.381C37.82 48.1889 39.6459 48.5968 41.3795 48.5968V47.0968ZM36.5118 46.001C34.7485 45.2497 32.9767 44.2341 31.2126 42.9497L30.3297 44.1623C32.1756 45.5063 34.0455 46.5807 35.9238 47.381L36.5118 46.001ZM31.2135 42.9504C29.4236 41.6429 27.7262 40.1949 26.1056 38.5898L25.0501 39.6556C26.7227 41.3121 28.477 42.8091 30.3288 44.1616L31.2135 42.9504ZM26.1107 38.5949C24.5055 36.9741 23.0577 35.277 21.7666 33.5037L20.554 34.3866C21.8913 36.2233 23.3885 37.9779 25.0449 39.6504L26.1107 38.5949ZM21.7692 33.5072C20.4972 31.7389 19.4819 29.9821 18.7473 28.2528L17.3667 28.8392C18.1521 30.6882 19.2267 32.5414 20.5515 34.3831L21.7692 33.5072ZM18.7482 28.255C18.0198 26.525 17.667 24.8982 17.667 23.3685H16.167C16.167 25.1322 16.5742 26.9571 17.3658 28.8371L18.7482 28.255ZM17.667 23.3685C17.667 22.3807 17.8411 21.4468 18.1833 20.5912L16.7906 20.0341C16.3729 21.0786 16.167 22.203 16.167 23.3685H17.667ZM18.1849 20.5873C18.522 19.7304 19.0586 18.9347 19.8225 18.2141L18.7932 17.123C17.8788 17.9856 17.2119 18.9633 16.7891 20.0381L18.1849 20.5873ZM19.834 18.203C20.7341 17.3169 21.6614 16.9302 22.6012 16.9302V15.4302C21.1976 15.4302 19.9082 16.0251 18.7817 17.134L19.834 18.203ZM22.6012 16.9302C22.9395 16.9302 23.271 17.003 23.5591 17.1413L24.2082 15.789C23.7047 15.5473 23.1495 15.4302 22.6012 15.4302V16.9302ZM23.5694 17.1461C23.8696 17.2847 24.1253 17.4862 24.3278 17.7787L25.5611 16.9249C25.1937 16.3942 24.721 16.0256 24.198 15.7842L23.5694 17.1461ZM24.3328 17.7858L28.0061 22.9633L29.2295 22.0954L25.5562 16.9179L24.3328 17.7858ZM28.0092 22.9676C28.267 23.3257 28.4411 23.6384 28.557 23.9216L29.9453 23.3537C29.7762 22.9403 29.5386 22.5247 29.2265 22.0911L28.0092 22.9676ZM28.5618 23.9331C28.6751 24.1974 28.7228 24.4284 28.7228 24.6035H30.2228C30.2228 24.1769 30.1123 23.743 29.9405 23.3422L28.5618 23.9331ZM28.7228 24.6035C28.7228 24.8325 28.6571 25.079 28.4997 25.3377L29.781 26.1176C30.0669 25.648 30.2228 25.1345 30.2228 24.6035H28.7228ZM28.4874 25.3586C28.3235 25.6487 28.0693 25.9755 27.7233 26.3215L28.784 27.3822C29.198 26.9682 29.5455 26.535 29.7932 26.0967L28.4874 25.3586ZM27.7132 26.3319L26.5098 27.5827L27.5908 28.6226L28.7942 27.3718L27.7132 26.3319ZM26.52 27.5723C26.1936 27.8988 26.047 28.3008 26.047 28.736H27.547C27.547 28.6887 27.5541 28.6697 27.5556 28.6659C27.5565 28.6636 27.5602 28.6535 27.5807 28.633L26.52 27.5723ZM26.047 28.736C26.047 28.9337 26.0729 29.1062 26.1169 29.2821L27.5721 28.9183C27.5527 28.8409 27.547 28.7916 27.547 28.736H26.047ZM26.1422 29.3635C26.1726 29.4444 26.203 29.5152 26.223 29.5626C26.2456 29.6161 26.2544 29.6382 26.2596 29.654L27.6827 29.1797C27.6563 29.1005 27.6254 29.0276 27.6045 28.9782C27.581 28.9227 27.5639 28.8827 27.5467 28.8368L26.1422 29.3635ZM26.3127 29.776C26.6332 30.3635 27.1612 31.089 27.8711 31.928L29.0162 30.9591C28.3328 30.1514 27.8791 29.5152 27.6296 29.0577L26.3127 29.776ZM27.8765 31.9343C28.5967 32.7664 29.3674 33.6176 30.2041 34.4704L31.2748 33.4199C30.4649 32.5944 29.7157 31.7672 29.0108 30.9527L27.8765 31.9343ZM30.2141 34.4804C31.0752 35.3255 31.9129 36.1153 32.7716 36.8444L33.7424 35.701C32.9227 35.005 32.1138 34.2432 31.2648 33.4099L30.2141 34.4804ZM32.7725 36.8452C33.6181 37.5607 34.3448 38.0725 34.9486 38.3922L35.6504 37.0665C35.1775 36.8162 34.5426 36.378 33.7414 35.7001L32.7725 36.8452ZM35.0209 38.4257C35.0407 38.4336 35.0677 38.4457 35.1176 38.4685C35.1624 38.4891 35.2232 38.5172 35.2891 38.5454L35.8799 37.1666C35.8349 37.1473 35.7928 37.1279 35.7426 37.1049C35.6975 37.0843 35.6375 37.0568 35.578 37.033L35.0209 38.4257ZM35.3211 38.5583C35.5574 38.6469 35.7797 38.6693 35.9803 38.6693V37.1693C35.8959 37.1693 35.8649 37.1602 35.8478 37.1538L35.3211 38.5583ZM35.9803 38.6693C36.459 38.6693 36.8527 38.4876 37.1598 38.1805L36.0992 37.1198C36.0696 37.1495 36.0526 37.1575 36.0466 37.1601C36.0414 37.1623 36.0238 37.1693 35.9803 37.1693V38.6693ZM37.1563 38.184L38.3596 36.9965L37.306 35.9288L36.1027 37.1163L37.1563 38.184ZM38.3632 36.993C38.7287 36.6275 39.0475 36.383 39.3197 36.2409L38.6259 34.9111C38.1698 35.149 37.7287 35.5062 37.3025 35.9323L38.3632 36.993ZM39.3628 36.2167C39.6242 36.0576 39.855 35.9935 40.097 35.9935V34.4935C39.5474 34.4935 39.0498 34.6511 38.5829 34.9354L39.3628 36.2167ZM40.097 35.9935C40.2879 35.9935 40.5083 36.0328 40.7789 36.1435L41.3468 34.7552C40.9207 34.5809 40.5077 34.4935 40.097 34.4935V35.9935ZM40.7789 36.1435C41.0642 36.2602 41.3814 36.4368 41.7494 36.687L42.5929 35.4466C42.1692 35.1585 41.7581 34.9234 41.3468 34.7552L40.7789 36.1435ZM41.737 36.6784L46.9778 40.3992L47.8462 39.1761L42.6053 35.4553L41.737 36.6784ZM46.9851 40.4043C47.3003 40.6225 47.4859 40.8522 47.5963 41.1031L48.9693 40.499C48.7314 39.9582 48.3471 39.5228 47.8389 39.171L46.9851 40.4043ZM47.5865 41.0795C47.7174 41.4069 47.7862 41.7076 47.7862 42.036H49.2862C49.2862 41.4778 49.1649 40.9868 48.9792 40.5225L47.5865 41.0795ZM43.7917 27.2633C43.7917 26.6185 43.5481 25.8932 43.1981 25.2124C42.8402 24.5164 42.3363 23.799 41.7375 23.1574L40.6409 24.1809C41.1504 24.7268 41.5727 25.3315 41.864 25.8982C42.1632 26.4801 42.2917 26.9582 42.2917 27.2633H43.7917ZM41.739 23.1591C40.6631 21.9992 39.1321 20.9717 37.5 20.9717V22.4717C38.5279 22.4717 39.6886 23.1542 40.6393 24.1792L41.739 23.1591ZM49.3333 27.2635C49.3333 20.7218 44.0417 15.4302 37.5 15.4302V16.9302C43.2133 16.9302 47.8333 21.5502 47.8333 27.2635H49.3333Z" fill="#ADADAD"/>
</svg>
