<svg width="65" height="65" viewBox="0 0 65 65" fill="none" xmlns="http://www.w3.org/2000/svg">
<path d="M14.275 54.0806H50.3125M43.2875 32.1082H47.025C48.0875 32.1082 48.925 33.0175 48.825 34.0638L47.9625 44.1656C47.625 48.164 44.275 51.2281 40.25 51.2281H25.2625C21.2375 51.2281 17.8875 48.1515 17.55 44.1656L16.6875 34.0638C16.6 33.005 17.4375 32.1082 18.4875 32.1082H36.6M16.7625 35.0603H12.775C12.175 35.0603 11.6875 35.5461 11.6875 36.1439V37.7632C11.6875 38.3611 12.175 38.8469 12.775 38.8469H17.0875M48.4125 38.8469H52.725C53.325 38.8469 53.8125 38.3611 53.8125 37.7632V36.1439C53.8125 35.5461 53.325 35.0603 52.725 35.0603H48.7375M27.9125 22.268L27.8 20.275C27.7375 19.2411 28.525 18.3568 29.55 18.2696L35.2875 17.7963C36.325 17.7091 37.25 18.4689 37.35 19.5152L37.5375 21.4832M41.5625 11.7177L41.8 11.9918C42.425 12.7267 42.4125 13.7481 41.775 14.4705L41.575 14.6823C40.925 15.4172 40.925 16.451 41.575 17.1859M44.7125 9.94897L44.95 10.223C45.575 10.9579 45.5625 11.9793 44.925 12.7018L44.725 12.9135C44.075 13.6484 44.075 14.6823 44.725 15.4172M17.9916 23.1452L47.4825 20.6155C48.81 20.5016 49.9788 21.4816 50.0931 22.8044C50.2073 24.1272 49.2238 25.2919 47.8964 25.4058L18.4054 27.9355C17.0779 28.0493 15.9092 27.0693 15.7949 25.7465C15.6806 24.4237 16.6641 23.259 17.9916 23.1452ZM36.6 31.7345V36.9038C36.6 37.975 37.475 38.8344 38.5375 38.8344H39.475V39.8309C39.475 40.8772 40.325 41.7242 41.375 41.7242C42.425 41.7242 43.275 40.8772 43.275 39.8309V31.7345C43.275 31.4356 43.025 31.1864 42.725 31.1864H37.1375C36.8375 31.1864 36.5875 31.4356 36.5875 31.7345H36.6Z" stroke="#ADADAD" stroke-width="1.5" stroke-linecap="round" stroke-linejoin="round"/>
</svg>
