<svg width="18" height="14" viewBox="0 0 18 14" fill="none" xmlns="http://www.w3.org/2000/svg">
<path d="M14.6875 1.5C15.3984 1.5 16 2.10156 16 2.8125V4.5625C16 5.30078 15.3984 5.875 14.6875 5.875H3.3125C2.57422 5.875 2 5.30078 2 4.5625V2.8125C2 2.10156 2.57422 1.5 3.3125 1.5H14.6875ZM14.6875 2.375H10.75V5H14.6875C14.9062 5 15.125 4.80859 15.125 4.5625V2.8125C15.125 2.59375 14.9062 2.375 14.6875 2.375ZM2.875 2.8125V4.5625C2.875 4.80859 3.06641 5 3.3125 5H9.875V2.375H3.3125C3.06641 2.375 2.875 2.59375 2.875 2.8125ZM14.6875 7.625C15.3984 7.625 16 8.22656 16 8.9375V10.6875C16 11.4258 15.3984 12 14.6875 12H3.3125C2.57422 12 2 11.4258 2 10.6875V8.9375C2 8.22656 2.57422 7.625 3.3125 7.625H14.6875ZM14.6875 8.5H7.25V11.125H14.6875C14.9062 11.125 15.125 10.9336 15.125 10.6875V8.9375C15.125 8.71875 14.9062 8.5 14.6875 8.5ZM2.875 8.9375V10.6875C2.875 10.9336 3.06641 11.125 3.3125 11.125H6.375V8.5H3.3125C3.06641 8.5 2.875 8.71875 2.875 8.9375Z" fill="white"/>
</svg>
