<svg width="23" height="23" viewBox="0 0 23 23" fill="none" xmlns="http://www.w3.org/2000/svg">
<path d="M22.0673 15.1706C20.0507 15.1706 18.4007 13.5206 18.4007 11.5039H4.02734V19.2772C6.00734 21.2572 8.75734 22.5039 11.8007 22.5039C16.604 22.5039 20.674 19.4239 22.1773 15.1706H22.0673Z" fill="#FF0000"/>
<path d="M22.0673 7.83723H22.1773C20.674 3.5839 16.604 0.503906 11.8007 0.503906C8.75734 0.503906 6.00734 1.75057 4.02734 3.73057V11.5039H18.4007C18.4007 9.48723 20.0507 7.83723 22.0673 7.83723Z" fill="#00732F"/>
<path d="M22.1773 7.8374H4.02734V15.1707H22.1773C22.5807 14.0341 22.8007 12.7874 22.8007 11.5041C22.8007 10.2207 22.5807 8.97407 22.1773 7.8374Z" fill="#F7F7F7"/>
<path d="M4.02745 3.73096C2.04745 5.71096 0.800781 8.46095 0.800781 11.5043C0.800781 14.5476 2.04745 17.2976 4.02745 19.2776L8.13411 15.1709V7.83762L4.02745 3.73096Z" fill="#1D1D1B"/>
</svg>
