<svg width="23" height="23" viewBox="0 0 23 23" fill="none" xmlns="http://www.w3.org/2000/svg">
<path d="M11.2002 22.5039C17.2753 22.5039 22.2002 17.579 22.2002 11.5039C22.2002 5.42877 17.2753 0.503906 11.2002 0.503906C5.12506 0.503906 0.200195 5.42877 0.200195 11.5039C0.200195 17.579 5.12506 22.5039 11.2002 22.5039Z" fill="#699635"/>
<path d="M11.0902 9.56132C11.0536 9.23132 11.2369 8.90132 11.5669 8.97466C11.8236 9.01132 12.1169 9.26799 11.9702 9.52466C11.7502 9.92799 11.1636 9.92799 10.7969 10.148C10.8336 10.368 11.8969 10.1113 12.0802 10.1113C12.2636 10.1113 12.4469 10.1847 12.3369 10.4047C12.2269 10.6247 11.8602 10.6247 11.6402 10.6613C11.4202 10.698 11.0536 10.698 10.9436 10.8813C10.7236 11.1747 11.1636 11.2113 11.3102 11.2847C11.6769 11.468 11.0902 11.6513 10.9436 11.6147C10.3936 11.5047 10.2836 11.2113 9.95357 10.8447C9.62357 11.2847 8.5969 12.2747 8.3769 11.248C8.01023 11.3947 7.64357 11.578 7.24023 11.6147C7.42357 11.358 7.79023 11.248 8.08357 11.1013C8.45023 10.918 8.45023 10.588 8.67023 10.2947C8.74357 10.4047 8.67023 10.5513 8.7069 10.698C9.00023 10.5513 9.3669 10.258 9.22023 9.89132C9.22023 9.85466 8.78023 8.97465 9.1469 9.12132C9.4769 9.26799 9.3669 9.59799 9.44023 9.85465C9.55023 10.3313 9.33023 10.588 8.96357 10.8813C8.8169 10.9913 8.41357 11.4313 8.89023 11.4313C9.22023 11.4313 9.51357 11.0647 9.6969 10.8447C9.9169 10.5513 9.84357 10.258 9.6969 9.92799C9.5869 9.67132 9.33023 9.12132 9.66023 8.93799C9.9169 9.34132 10.0269 9.81799 10.1369 10.2947C10.2102 10.698 10.2836 11.1013 10.7236 11.2113C10.6869 10.918 10.8702 10.698 11.1269 10.588C10.9436 10.4413 9.9169 10.6247 10.3202 10.0747C10.3569 9.81799 11.0902 9.70799 11.0902 9.56132Z" fill="white"/>
<path d="M5.48061 10.9176C5.66395 11.4309 6.28728 11.2476 6.65395 11.1009C7.24061 10.8076 7.24061 10.3676 7.24061 9.78089C7.02061 9.89089 7.05728 10.2942 6.98395 10.4776C6.83728 10.7709 6.36061 11.0276 6.03061 10.9909C5.55395 10.9176 5.33395 10.1109 5.70061 9.81756C5.77395 10.0742 5.59061 10.6242 6.03061 10.6609C6.36061 10.6976 7.02061 10.2942 6.91061 9.92756C6.47061 10.0742 6.21395 9.92756 6.36061 9.45089C6.47061 9.01089 6.91061 9.34089 7.09395 9.56089C7.79061 9.15756 6.54395 7.61756 7.27728 7.21423C7.42395 7.47089 7.64395 7.80089 7.46061 8.05756C7.24061 8.35089 7.46061 8.97423 7.49728 9.30423C7.86395 8.97423 7.57061 9.56089 7.86395 9.59756C8.04728 9.63423 8.12061 9.15756 8.23061 9.15756C8.26728 9.26756 8.26728 9.59756 8.45061 9.56089C8.67061 9.48756 8.41395 9.19423 8.63395 9.12089C8.70728 9.30423 8.67061 9.85423 8.41395 9.81756C8.19395 9.78089 8.23061 9.63423 7.97395 9.78089C7.75395 9.89089 7.68061 9.78089 7.53395 9.67089C7.49728 10.1109 7.64395 10.5876 7.38728 10.9909C7.16728 11.3209 6.72728 11.5042 6.36061 11.5776C5.40728 11.7609 5.15061 10.8076 5.48061 10.0376C5.55395 10.2576 5.40728 10.6609 5.48061 10.9176ZM14.4273 11.1009C14.6106 11.5776 14.9773 10.5876 15.0873 10.4409C15.3806 10.0009 15.8206 11.1376 16.0039 10.4042C16.1139 9.92756 15.9673 9.45089 15.9306 8.97423C15.8939 8.64423 15.7839 8.35089 15.5639 8.09423C15.3439 7.80089 15.1239 7.54423 15.2339 7.17756C15.6006 7.32423 15.6006 7.61756 15.7839 7.91089C15.8206 7.69089 15.6739 7.39756 15.8206 7.21423C16.0039 6.95756 16.1506 7.65423 16.1506 7.72756C16.1873 7.91089 16.0039 7.98423 16.1139 8.27756C16.1873 8.49756 16.3339 8.71756 16.4806 8.90089C16.4439 8.68089 16.1139 7.17756 16.4806 7.17756C16.5906 7.17756 16.7006 7.61756 16.7006 7.69089C16.7739 7.91089 16.6273 8.09423 16.6273 8.35089C16.5906 8.79089 16.6639 9.30423 16.9573 9.63423C17.1039 9.81756 17.6539 10.4776 17.3606 10.6976C17.1406 10.4409 16.9939 10.1476 16.8106 9.89089C16.8106 10.1842 16.8839 10.5142 16.7373 10.7342C16.5906 10.6609 16.6639 10.1842 16.6639 10.0742C16.6639 9.67089 16.4073 9.34089 16.1873 9.01089C16.1139 9.56089 16.5539 10.5876 16.0406 10.9909C15.7106 11.2842 15.2706 10.6242 15.1606 10.8809C15.0506 11.0642 14.7939 11.7242 14.5006 11.6509C14.1339 11.5776 13.8773 10.5509 14.2806 10.4409C14.3173 10.6242 14.3173 10.8809 14.4273 11.1009Z" fill="white"/>
<path d="M6.58038 8.60785C6.83705 8.64451 6.58038 7.76451 6.58038 7.61785C6.61705 7.47118 6.72705 7.39785 6.80038 7.54451C6.91038 7.76451 6.91038 8.02118 6.94705 8.24118C6.94705 8.42451 6.98372 8.64451 6.83705 8.79118C6.61705 9.01118 6.32371 8.90118 6.21371 8.60785C5.70038 9.04785 6.36038 9.81785 5.92038 10.2578C5.84705 9.85451 5.92038 9.41451 5.77372 9.04785C5.70038 8.86451 5.37038 8.93785 5.33372 8.60785C5.33372 8.46118 5.44371 8.05785 5.29705 7.94785C5.22371 8.09451 5.15038 9.23118 4.78371 8.90118C4.49038 8.68118 4.56371 7.94785 4.67371 7.65451C4.89371 7.76451 4.63705 8.57118 4.93038 8.60785C5.07705 8.64451 5.11371 8.02118 5.15038 7.91118C5.26038 7.72785 5.62705 7.21451 5.55372 7.72785C5.51705 7.94785 5.33372 8.64451 5.77372 8.60785C5.73705 8.24118 5.70038 7.87451 5.62705 7.50785C5.59038 7.32451 5.70038 6.95785 5.84705 7.28785C5.95705 7.50785 5.88371 7.61785 5.84705 7.83785C5.81038 8.09451 5.92038 8.35118 5.95705 8.57118C6.17705 8.38785 5.88371 7.69118 6.06705 7.39785C6.50705 7.65451 6.03038 8.53451 6.58038 8.60785ZM11.3104 8.68118C11.127 8.93785 10.797 8.71785 10.6504 8.53451C10.467 8.75451 10.1004 9.12118 9.80705 8.82785C9.58705 8.60785 9.84371 8.20451 9.66038 8.02118C9.55038 8.20451 9.36705 9.08451 9.03705 8.68118C8.85371 8.46118 8.59705 7.69118 9.00038 7.50785C8.96372 7.80118 8.89038 8.13118 9.07372 8.38785C9.25705 8.64451 9.44038 7.98451 9.51371 7.83785C9.62371 7.58118 9.99038 7.14118 9.91705 7.69118C9.88038 7.91118 9.80705 8.42451 10.027 8.57118C10.1737 8.68118 10.357 8.49785 10.4304 8.38785C10.577 8.20451 10.5037 7.91118 10.467 7.69118C10.4304 7.50785 10.357 7.28785 10.467 7.10451C10.6137 6.88451 10.7237 7.39785 10.7237 7.50785C10.7237 7.61785 10.8704 8.75451 11.127 8.38785C11.3837 8.05785 10.687 7.32451 11.1637 7.14118C11.347 7.06785 11.677 7.80118 11.3104 7.58118C11.4204 7.91118 11.567 8.38785 11.3104 8.68118ZM12.7037 9.12118C12.7404 9.59785 13.1437 10.9178 12.5937 11.2112C12.5204 11.0645 12.5937 10.8445 12.6304 10.6612C12.667 10.3312 12.5937 10.0012 12.557 9.70785C12.4837 9.01118 12.4104 8.49785 11.9337 7.94785C11.8237 7.80118 11.6404 7.69118 11.6037 7.47118C11.6037 7.39785 11.567 7.06785 11.7137 7.14118C11.8237 7.17785 12.447 7.72785 12.117 7.72785C12.1537 7.80118 12.3004 8.09451 12.3737 8.09451C12.3737 7.91118 12.1537 7.36118 12.3737 7.25118C12.557 7.14118 12.777 7.83785 12.7037 7.98451C12.6304 8.16785 12.6304 8.27785 12.7037 8.53451C12.777 8.82785 12.9604 9.08451 13.107 9.34118C13.327 9.70785 13.767 10.2212 13.657 10.6978C13.437 10.5878 13.2904 10.0745 13.1804 9.85451C13.107 9.67118 13.0337 9.48785 12.9237 9.34118C12.887 9.30451 12.667 9.01118 12.7037 9.19451V9.12118ZM17.8004 9.81785C17.837 10.5878 17.5804 11.5778 16.627 11.5778C16.627 11.3578 17.1037 11.1378 17.2504 11.0278C17.617 10.7345 17.5804 10.1845 17.5437 9.78118C17.507 9.23118 17.4704 8.68118 17.3604 8.13118C17.3237 7.80118 17.1404 7.32451 17.4337 7.10451C17.617 7.25118 17.8737 7.65451 17.7637 7.80118C17.5804 8.02118 17.7637 9.67118 17.8004 9.81785Z" fill="white"/>
<path d="M13.1066 11.468C14.06 10.918 13.7666 9.74468 13.6933 8.82801C13.6566 8.57134 13.6566 8.31468 13.62 8.05801C13.62 7.87468 13.4733 7.61801 13.5466 7.43468C13.73 6.95801 13.8766 7.39801 13.9133 7.69134C13.95 7.87468 13.8033 7.91134 13.84 8.05801C13.8766 8.35134 13.8766 8.64468 13.9133 8.93801C13.95 9.41468 14.0233 9.89134 13.9866 10.3313C13.9133 11.028 13.5466 11.798 12.7033 11.6513C12.74 11.578 12.9966 11.5413 13.1066 11.468ZM14.6466 9.63468C14.6833 10.0013 14.83 10.6613 14.6466 10.9913C14.5 11.2113 14.5 10.8447 14.4633 10.808C14.4266 10.5147 14.4266 10.2213 14.4266 9.89134C14.3533 9.08468 14.0966 8.27801 14.0966 7.50801C14.0966 6.51801 14.94 8.05801 14.4633 7.98468C14.5 8.53468 14.5733 9.08468 14.6466 9.63468ZM8.66996 7.76468C8.74329 7.94801 7.82663 8.42468 7.71663 8.42468C7.67996 8.24134 8.11996 7.98468 8.22996 7.91134C8.33996 7.80134 8.41329 7.80134 8.37663 7.65468C8.30329 7.50801 8.33996 7.25134 8.52329 7.17801C8.88996 7.06801 8.63329 7.61801 8.66996 7.76468ZM4.89329 11.028C4.89329 11.3213 5.00329 11.1747 5.14996 11.1013C5.22329 11.248 5.03996 11.6513 4.85663 11.468C4.59996 11.2113 4.81996 10.6247 4.92996 10.368C5.00329 10.5513 4.85663 10.8447 4.89329 11.028ZM15.2333 8.75468C15.27 8.60801 15.16 8.46134 15.27 8.31468C15.4166 8.13134 15.5633 8.35134 15.49 8.42468C15.4166 8.49801 15.3066 8.35134 15.3066 8.57134C15.3066 8.68134 15.38 8.90134 15.27 9.01134C15.1966 8.97468 14.8666 8.49801 14.9033 8.42468C15.05 8.27801 15.1966 8.71801 15.2333 8.75468ZM5.66329 9.37801C5.58996 9.52468 4.74663 10.0013 4.70996 9.89134C4.70996 9.78134 5.77329 9.15801 5.66329 9.37801ZM11.8966 11.248C11.7866 11.578 12.2633 11.2847 12.3733 11.248C12.2266 11.5047 11.7133 11.7247 11.7866 11.248C11.75 11.248 11.6766 11.2847 11.64 11.2847C11.5666 11.2113 12.0066 10.918 11.8966 11.248ZM15.8933 11.138C16.0033 11.138 16.1866 11.468 16.0766 11.5413C16.0033 11.6147 15.6733 11.6513 15.8566 11.5047C16.0766 11.2847 15.8933 11.138 15.8933 11.138ZM10.7233 9.26801C10.76 9.19468 10.76 9.08468 10.7966 9.01134C11.1633 9.30468 10.21 9.78134 10.3933 9.08468C10.4666 9.15801 10.4666 9.26801 10.54 9.30468C10.54 9.23134 10.5766 9.12134 10.5766 9.04801C10.65 9.12134 10.65 9.23134 10.7233 9.26801ZM15.0133 9.74468C14.9033 9.59801 15.5633 9.19468 15.6733 9.12134C15.7466 9.23134 15.2333 9.63468 15.0133 9.74468ZM17.0666 8.27801C16.9933 8.05801 16.7733 7.61801 16.9933 7.43468C17.14 7.54468 17.2133 8.09468 17.0666 8.27801ZM13.07 7.54468C13.0333 7.47134 12.9233 7.39801 12.9233 7.28801C12.96 7.14134 13.0333 7.17801 13.1066 7.25134C13.2166 7.39801 13.29 7.80134 13.1066 7.91134C13.1066 7.80134 13.1433 7.65468 13.07 7.54468ZM8.59663 8.53468C8.59663 8.75468 8.22996 8.97468 8.19329 8.68134C8.15663 8.57134 8.33996 8.16801 8.41329 8.27801C8.26663 8.60801 8.26663 8.71801 8.59663 8.53468Z" fill="white"/>
<path d="M13.1807 8.13078C13.3273 8.49745 13.254 8.16745 13.4007 8.09411C13.6573 8.57078 12.8507 8.46078 13.034 8.16745C13.0707 8.20411 13.1073 8.27745 13.1073 8.31411C13.144 8.27745 13.144 8.20411 13.1807 8.13078ZM15.5273 9.81745C15.344 9.67078 15.564 9.48745 15.674 9.67078C15.7473 9.78078 15.7473 10.0741 15.6007 10.1474C15.6007 10.0374 15.6373 9.89078 15.5273 9.81745ZM8.01067 10.6241C8.01067 10.5508 7.97401 10.0008 8.08401 10.0741C8.23068 10.1474 8.19401 10.5508 8.01067 10.6241ZM6.47068 7.17745C6.50734 7.28745 6.54401 7.43411 6.61734 7.25078C6.91068 7.58078 5.88401 7.47078 6.25068 7.14078C6.25068 7.17745 6.32401 7.39745 6.47068 7.17745ZM10.2107 7.98411C10.2107 7.83745 9.99068 7.21411 10.174 7.21411C10.394 7.25078 10.3573 7.80078 10.2107 7.98411ZM5.07734 7.65411C4.96734 7.61745 5.15068 7.43411 5.07734 7.28745C5.00401 7.32411 4.93068 7.21411 5.00401 7.14078C5.29734 6.92078 5.18734 7.65411 5.07734 7.65411ZM14.574 15.0974L14.4273 14.6574L14.2807 15.0974H6.25068C6.25068 15.0974 6.32401 15.7574 7.13067 15.7574H14.244V16.2708H16.1873V15.0974H14.574ZM15.8207 15.9774H14.5007V15.6108H15.8207V15.9774Z" fill="white"/>
</svg>
