<svg width="22" height="22" viewBox="0 0 22 22" fill="none" xmlns="http://www.w3.org/2000/svg">
<path d="M0 10.9997C0 15.803 3.08 19.873 7.33333 21.3764V0.623047C3.08 2.12638 0 6.19638 0 10.9997Z" fill="#FF0000"/>
<path d="M11.0002 0C9.71683 0 8.47016 0.22 7.3335 0.623333V7.33333H21.3768C19.8735 3.08 15.8035 0 11.0002 0Z" fill="#00732F"/>
<path d="M21.3768 7.33337H7.3335V14.6667H21.3768C21.7802 13.53 22.0002 12.2834 22.0002 11C22.0002 9.71671 21.7802 8.47004 21.3768 7.33337Z" fill="#F7F7F7"/>
<path d="M7.3335 14.6666V21.3766C8.47016 21.78 9.71683 22 11.0002 22C15.8035 22 19.8735 18.9566 21.3768 14.6666H7.3335Z" fill="#1D1D1B"/>
</svg>
