<svg width="22" height="23" viewBox="0 0 22 23" fill="none" xmlns="http://www.w3.org/2000/svg">
<path d="M11.0003 0.503906C9.05693 0.503906 7.26026 1.01724 5.68359 1.86057V21.1106C7.26026 21.9906 9.05693 22.5039 11.0003 22.5039C17.0869 22.5039 22.0003 17.5906 22.0003 11.5039C22.0003 5.41724 17.0869 0.503906 11.0003 0.503906Z" fill="#C94747"/>
<path opacity="0.33" d="M11.0003 0.503906C9.05693 0.503906 7.26026 1.01724 5.68359 1.86057V21.1106C7.26026 21.9906 9.05693 22.5039 11.0003 22.5039C17.0869 22.5039 22.0003 17.5906 22.0003 11.5039C22.0003 5.41724 17.0869 0.503906 11.0003 0.503906Z" fill="#7800FF"/>
<path d="M0 11.5037C0 15.647 2.31 19.2404 5.68333 21.147L9.53333 20.3037L5.86667 19.2037L9.53333 18.1037L5.86667 17.0037L9.53333 15.9037L5.86667 14.8037L9.53333 13.7037L5.86667 12.6037L9.53333 11.5037L5.86667 10.4037L9.53333 9.30368L5.86667 8.20368L9.53333 7.10368L5.86667 6.00368L9.53333 4.90369L5.86667 3.80368L9.53333 2.70368L5.68333 1.86035C2.31 3.76702 0 7.36035 0 11.5037Z" fill="#F7F7F7"/>
</svg>
