<svg width="23" height="23" viewBox="0 0 23 23" fill="none" xmlns="http://www.w3.org/2000/svg">
<path d="M11.6003 0.503906C10.3169 0.503906 9.07026 0.723906 7.93359 1.12724V7.83724H21.9769C20.4736 3.58391 16.4036 0.503906 11.6003 0.503906Z" fill="#F7F7F7"/>
<path d="M21.9773 7.83695H7.93392V1.12695C3.68059 2.63029 0.600586 6.70029 0.600586 11.5036C0.600586 16.307 3.68059 20.377 7.93392 21.8803V15.1703H21.9773C22.3806 14.0336 22.6006 12.787 22.6006 11.5036C22.6006 10.2203 22.3806 8.97362 21.9773 7.83695Z" fill="#FF0000"/>
<path d="M7.93359 15.1704V21.8804C9.07026 22.2837 10.3169 22.5037 11.6003 22.5037C16.4036 22.5037 20.4736 19.4604 21.9769 15.1704H7.93359Z" fill="#00732F"/>
<path d="M6.87104 7.98437L6.79771 8.02104L6.21104 7.5077L5.55104 6.77437C5.58771 6.70104 5.58771 6.5177 5.55104 6.4077L5.66104 6.2977H5.77104C5.80771 6.37104 5.88104 6.44437 5.99104 6.44437C6.10104 6.44437 6.17437 6.4077 6.21104 6.2977H6.35771V6.48103H7.34771V5.93104H6.35771V6.11437H6.21104C6.17437 6.04103 6.10104 5.9677 6.02771 5.9677L6.06437 5.93104L6.87104 4.28104L6.76104 4.17104L5.62438 5.71104L5.69771 5.78437L5.62438 5.93104H5.44104L5.40438 5.8577H5.55104V5.7477L5.44104 5.71104V5.49104H5.58771L5.62438 5.38104L5.33104 5.3077V4.57437L5.55104 4.3177L5.18438 4.06104L4.81771 4.3177L5.03771 4.57437V5.3077L4.74438 5.38104L4.78104 5.49104H4.92771V5.71104L4.81771 5.7477V5.8577H4.96437L4.92771 5.93104H4.74438L4.67104 5.78437L4.74438 5.71104L3.60771 4.17104L3.53438 4.2077L4.34104 5.8577L4.37771 5.89437C4.30438 5.89437 4.23104 5.9677 4.19438 6.04104H4.04771V5.8577H2.98438V6.4077H3.97437V6.22437H4.12104C4.15771 6.2977 4.23104 6.37104 4.34104 6.37104C4.45104 6.37104 4.52438 6.33437 4.56104 6.22437H4.67104L4.78104 6.37104V6.44437H4.63438V6.6277L3.75438 6.70104L3.71771 6.6277C3.71771 6.6277 3.24104 6.70104 3.16771 6.81104V6.92104C3.24104 7.03104 3.71771 7.1777 3.71771 7.1777V7.14104C3.71771 7.14104 4.04771 7.21437 4.41437 7.25104L4.19438 7.5077L3.60771 8.02104L3.53438 7.98437L3.02104 8.4977L2.98438 8.57104L3.57104 8.3877L3.97437 8.09437L3.90104 8.0577L4.85438 7.25104H4.92771C5.03771 7.25104 5.25771 7.1777 5.33104 7.10437L5.44104 7.21437L6.43104 8.0577L6.35771 8.09437L6.76104 8.3877L7.34771 8.57104L7.38438 8.4977L6.87104 7.98437Z" fill="white"/>
</svg>
