<svg width="18" height="15" viewBox="0 0 18 15" fill="none" xmlns="http://www.w3.org/2000/svg">
<path d="M0.5 1.25C0.5 0.585938 1.04688 0 1.75 0H16.75C17.4141 0 18 0.585938 18 1.25C18 1.95312 17.4141 2.5 16.75 2.5H1.75C1.04688 2.5 0.5 1.95312 0.5 1.25ZM0.5 7.5C0.5 6.83594 1.04688 6.25 1.75 6.25H16.75C17.4141 6.25 18 6.83594 18 7.5C18 8.20312 17.4141 8.75 16.75 8.75H1.75C1.04688 8.75 0.5 8.20312 0.5 7.5ZM18 13.75C18 14.4531 17.4141 15 16.75 15H1.75C1.04688 15 0.5 14.4531 0.5 13.75C0.5 13.0859 1.04688 12.5 1.75 12.5H16.75C17.4141 12.5 18 13.0859 18 13.75Z" fill="#111110"/>
</svg>
