<svg width="25" height="26" viewBox="0 0 25 26" fill="none" xmlns="http://www.w3.org/2000/svg">
<path d="M13.6899 0.585938C15.0864 0.589662 15.7952 0.59711 16.4072 0.614489L16.648 0.623178C16.9261 0.633109 17.2004 0.645522 17.5318 0.660418C18.8526 0.722486 19.7538 0.931033 20.5445 1.23765C21.3638 1.55295 22.0539 1.97997 22.7441 2.66892C23.3753 3.28947 23.8637 4.0401 24.1753 4.8686C24.4819 5.65934 24.6905 6.56056 24.7526 7.88259C24.7674 8.21279 24.7799 8.48713 24.7898 8.76644L24.7972 9.00726C24.8159 9.618 24.8233 10.3268 24.8258 11.7233L24.827 12.6494V14.2755C24.8301 15.181 24.8206 16.0864 24.7985 16.9916L24.791 17.2324C24.7811 17.5117 24.7687 17.7861 24.7538 18.1163C24.6917 19.4383 24.4807 20.3383 24.1753 21.1303C23.8646 21.9592 23.3761 22.71 22.7441 23.33C22.1234 23.961 21.3728 24.4493 20.5445 24.7612C19.7538 25.0678 18.8526 25.2764 17.5318 25.3385C17.2373 25.3523 16.9427 25.3647 16.648 25.3757L16.4072 25.3832C15.7952 25.4005 15.0864 25.4092 13.6899 25.4117L12.7639 25.4129H11.139C10.2332 25.4161 9.32737 25.4065 8.4218 25.3844L8.18099 25.3769C7.88631 25.3658 7.5917 25.353 7.29717 25.3385C5.97641 25.2764 5.07521 25.0678 4.28326 24.7612C3.45489 24.4501 2.70457 23.9616 2.08489 23.33C1.45311 22.7096 0.964256 21.959 0.652407 21.1303C0.345802 20.3395 0.137261 19.4383 0.0751951 18.1163C0.0613654 17.8217 0.0489521 17.5271 0.0379557 17.2324L0.0317493 16.9916C0.00887434 16.0865 -0.00147106 15.181 0.00071624 14.2755V11.7233C-0.00274823 10.8179 0.00635572 9.91245 0.0280253 9.00726L0.0367144 8.76644C0.046645 8.48713 0.0590581 8.21279 0.0739539 7.88259C0.13602 6.56056 0.344561 5.66058 0.651166 4.8686C0.962877 4.03926 1.45271 3.28839 2.08613 2.66892C2.70566 2.03766 3.45548 1.54921 4.28326 1.23765C5.07521 0.931033 5.97517 0.722486 7.29717 0.660418C7.62736 0.645522 7.90293 0.633109 8.18099 0.623178L8.4218 0.61573C9.32696 0.593674 10.2324 0.584157 11.1378 0.587179L13.6899 0.585938ZM12.4139 6.79269C10.7678 6.79269 9.18912 7.44661 8.02516 8.6106C6.8612 9.7746 6.20729 11.3533 6.20729 12.9994C6.20729 14.6456 6.8612 16.2243 8.02516 17.3883C9.18912 18.5523 10.7678 19.2062 12.4139 19.2062C14.06 19.2062 15.6386 18.5523 16.8026 17.3883C17.9665 16.2243 18.6205 14.6456 18.6205 12.9994C18.6205 11.3533 17.9665 9.7746 16.8026 8.6106C15.6386 7.44661 14.06 6.79269 12.4139 6.79269ZM12.4139 9.27539C12.9029 9.27531 13.3872 9.37155 13.839 9.55863C14.2909 9.7457 14.7014 10.0199 15.0473 10.3657C15.3931 10.7115 15.6675 11.1219 15.8547 11.5737C16.042 12.0255 16.1384 12.5098 16.1384 12.9988C16.1385 13.4879 16.0423 13.9721 15.8552 14.424C15.6681 14.8759 15.3939 15.2864 15.0482 15.6323C14.7024 15.9782 14.2919 16.2526 13.8402 16.4398C13.3884 16.627 12.9042 16.7234 12.4151 16.7235C11.4275 16.7235 10.4803 16.3311 9.78189 15.6327C9.08351 14.9343 8.69117 13.9871 8.69117 12.9994C8.69117 12.0118 9.08351 11.0645 9.78189 10.3661C10.4803 9.66774 11.4275 9.27539 12.4151 9.27539M18.932 4.93066C18.5205 4.93066 18.1258 5.09414 17.8348 5.38514C17.5439 5.67614 17.3804 6.07082 17.3804 6.48235C17.3804 6.89388 17.5439 7.28856 17.8348 7.57956C18.1258 7.87056 18.5205 8.03404 18.932 8.03404C19.3435 8.03404 19.7382 7.87056 20.0292 7.57956C20.3202 7.28856 20.4837 6.89388 20.4837 6.48235C20.4837 6.07082 20.3202 5.67614 20.0292 5.38514C19.7382 5.09414 19.3435 4.93066 18.932 4.93066Z" fill="#DDDDDD"/>
</svg>
