<svg width="65" height="65" viewBox="0 0 65 65" fill="none" xmlns="http://www.w3.org/2000/svg">
<path d="M34.2279 15.6895C36.119 15.6945 37.0788 15.7046 37.9075 15.7281L38.2336 15.7399C38.6102 15.7533 38.9816 15.7701 39.4305 15.7903C41.219 15.8744 42.4394 16.1568 43.5101 16.572C44.6195 16.9989 45.5542 17.5772 46.4888 18.5102C47.3435 19.3505 48.0049 20.367 48.4269 21.4889C48.8421 22.5597 49.1245 23.7801 49.2085 25.5703C49.2287 26.0175 49.2455 26.389 49.259 26.7672L49.2691 27.0933C49.2943 27.9204 49.3044 28.8802 49.3077 30.7713L49.3094 32.0254V34.2275C49.3135 35.4536 49.3006 36.6797 49.2707 37.9055L49.2606 38.2316C49.2472 38.6098 49.2304 38.9813 49.2102 39.4285C49.1262 41.2187 48.8404 42.4374 48.4269 43.5099C48.0061 44.6325 47.3446 45.6492 46.4888 46.4886C45.6482 47.3431 44.6318 48.0045 43.5101 48.4268C42.4394 48.842 41.219 49.1245 39.4305 49.2085C39.0316 49.2273 38.6326 49.2441 38.2336 49.2589L37.9075 49.269C37.0788 49.2925 36.119 49.3043 34.2279 49.3077L32.9739 49.3094H30.7736C29.5469 49.3136 28.3203 49.3007 27.094 49.2707L26.7679 49.2606C26.3688 49.2455 25.9699 49.2281 25.571 49.2085C23.7825 49.1245 22.5621 48.842 21.4897 48.4268C20.3679 48.0055 19.3519 47.344 18.5127 46.4886C17.6572 45.6486 16.9952 44.6321 16.5729 43.5099C16.1577 42.4391 15.8753 41.2187 15.7913 39.4285C15.7726 39.0296 15.7557 38.6306 15.7409 38.2316L15.7324 37.9055C15.7015 36.6797 15.6875 35.4536 15.6904 34.2275V30.7713C15.6857 29.5452 15.6981 28.3191 15.7274 27.0933L15.7392 26.7672C15.7526 26.389 15.7694 26.0175 15.7896 25.5703C15.8736 23.7801 16.156 22.5614 16.5712 21.4889C16.9933 20.3658 17.6567 19.349 18.5144 18.5102C19.3534 17.6553 20.3687 16.9939 21.4897 16.572C22.5621 16.1568 23.7808 15.8744 25.571 15.7903C26.0182 15.7701 26.3913 15.7533 26.7679 15.7399L27.094 15.7298C28.3197 15.6999 29.5458 15.687 30.7719 15.6911L34.2279 15.6895ZM32.4999 24.0944C30.2708 24.0944 28.1331 24.98 26.5569 26.5562C24.9807 28.1324 24.0952 30.2703 24.0952 32.4994C24.0952 34.7285 24.9807 36.8664 26.5569 38.4426C28.1331 40.0189 30.2708 40.9044 32.4999 40.9044C34.729 40.9044 36.8668 40.0189 38.443 38.4426C40.0192 36.8664 40.9046 34.7285 40.9046 32.4994C40.9046 30.2703 40.0192 28.1324 38.443 26.5562C36.8668 24.98 34.729 24.0944 32.4999 24.0944ZM32.4999 27.4564C33.1621 27.4563 33.8179 27.5866 34.4298 27.84C35.0417 28.0933 35.5976 28.4647 36.066 28.9329C36.5343 29.4011 36.9059 29.957 37.1594 30.5688C37.4129 31.1806 37.5435 31.8363 37.5436 32.4986C37.5437 33.1608 37.4134 33.8166 37.1601 34.4285C36.9067 35.0404 36.5354 35.5964 36.0672 36.0647C35.599 36.5331 35.0431 36.9047 34.4313 37.1582C33.8196 37.4117 33.1638 37.5423 32.5016 37.5424C31.1641 37.5424 29.8815 37.0111 28.9358 36.0653C27.99 35.1196 27.4587 33.8369 27.4587 32.4994C27.4587 31.1619 27.99 29.8792 28.9358 28.9335C29.8815 27.9877 31.1641 27.4564 32.5016 27.4564M41.3266 21.5729C40.7693 21.5729 40.2349 21.7943 39.8408 22.1884C39.4468 22.5824 39.2254 23.1169 39.2254 23.6742C39.2254 24.2315 39.4468 24.7659 39.8408 25.16C40.2349 25.554 40.7693 25.7754 41.3266 25.7754C41.8838 25.7754 42.4183 25.554 42.8123 25.16C43.2064 24.7659 43.4278 24.2315 43.4278 23.6742C43.4278 23.1169 43.2064 22.5824 42.8123 22.1884C42.4183 21.7943 41.8838 21.5729 41.3266 21.5729Z" fill="#DDDDDD"/>
</svg>
