<svg width="12" height="13" viewBox="0 0 12 13" fill="none" xmlns="http://www.w3.org/2000/svg">
<path d="M9.78906 2.21094C9.17969 1.60156 8.17188 1.60156 7.5625 2.21094L3.0625 6.71094C2.05469 7.74219 2.05469 9.40625 3.0625 10.4141C4.09375 11.4453 5.75781 11.4453 6.78906 10.4141L10.3516 6.85156C10.5625 6.64062 10.9141 6.64062 11.125 6.85156C11.3594 7.08594 11.3594 7.4375 11.125 7.64844L7.5625 11.2109C6.10938 12.6875 3.74219 12.6875 2.28906 11.2109C0.8125 9.75781 0.8125 7.39062 2.28906 5.91406L6.78906 1.4375C7.82031 0.382812 9.53125 0.382812 10.5625 1.4375C11.6172 2.46875 11.6172 4.17969 10.5625 5.21094L6.27344 9.52344C5.52344 10.2734 4.30469 10.2031 3.64844 9.38281C3.08594 8.67969 3.15625 7.67188 3.78906 7.03906L7.35156 3.47656C7.5625 3.26562 7.91406 3.26562 8.125 3.47656C8.35938 3.71094 8.35938 4.0625 8.125 4.27344L4.58594 7.83594C4.35156 8.07031 4.32812 8.42188 4.53906 8.67969C4.77344 8.98438 5.19531 9.00781 5.47656 8.72656L9.78906 4.41406C10.3984 3.82812 10.3984 2.82031 9.78906 2.21094Z" fill="#ADADAD"/>
</svg>
