<svg width="15" height="16" viewBox="0 0 15 16" fill="none" xmlns="http://www.w3.org/2000/svg">
<path d="M4.75 1C4.75 0.59375 5.0625 0.25 5.5 0.25C5.90625 0.25 6.25 0.59375 6.25 1C6.25 1.4375 5.90625 1.75 5.5 1.75C5.0625 1.75 4.75 1.4375 4.75 1ZM10.5 2.5C10.5 3.34375 9.8125 4 9 4C8.15625 4 7.5 3.34375 7.5 2.5C7.5 1.6875 8.15625 1 9 1C9.8125 1 10.5 1.6875 10.5 2.5ZM9 2C8.71875 2 8.5 2.25 8.5 2.5C8.5 2.78125 8.71875 3 9 3C9.25 3 9.5 2.78125 9.5 2.5C9.5 2.25 9.25 2 9 2ZM1 6C0.71875 6 0.5 5.78125 0.5 5.5C0.5 5.25 0.71875 5 1 5H14C14.25 5 14.5 5.25 14.5 5.5C14.5 5.78125 14.25 6 14 6H12.75C13.5312 7.15625 14.5 8.875 14.5 10.4688C14.5 11.625 14.125 12.625 13.5 13.4375V15.5C13.5 15.7812 13.25 16 13 16C12.7188 16 12.5 15.7812 12.5 15.5V14.4375C11.1562 15.4688 9.34375 16 7.5 16C5.625 16 3.8125 15.4688 2.5 14.4375V15.5C2.5 15.7812 2.25 16 2 16C1.71875 16 1.5 15.7812 1.5 15.5V13.4375C0.84375 12.625 0.5 11.625 0.5 10.4688C0.5 8.875 1.4375 7.15625 2.21875 6H1ZM2.375 7.65625C1.84375 8.59375 1.5 9.625 1.5 10.4688C1.5 11.875 2.15625 12.9688 3.25 13.75C4.34375 14.5625 5.875 15 7.5 15C9.09375 15 10.625 14.5625 11.7188 13.75C12.8125 12.9688 13.5 11.875 13.5 10.4688C13.5 9.625 13.125 8.59375 12.5938 7.65625C12.25 6.96875 11.8125 6.40625 11.5312 6H3.4375C3.15625 6.40625 2.71875 6.96875 2.375 7.65625Z" fill="#D7282F"/>
</svg>
