<svg width="15" height="16" viewBox="0 0 15 16" fill="none" xmlns="http://www.w3.org/2000/svg">
<path d="M11.5 0C13.1562 0 14.5 1.34375 14.5 3V14C14.5 15.125 13.5938 16 12.5 16H2.5C1.375 16 0.5 15.125 0.5 14V3C0.5 1.34375 1.8125 0 3.5 0H11.5ZM13.5 14V6H1.5V14C1.5 14.5625 1.9375 15 2.5 15H12.5C13.0312 15 13.5 14.5625 13.5 14ZM13.5 5V3C13.5 1.90625 12.5938 1 11.5 1H3.5C2.375 1 1.5 1.90625 1.5 3V5H13.5ZM3.5 14C2.9375 14 2.5 13.5625 2.5 13V8C2.5 7.46875 2.9375 7 3.5 7H11.5C12.0312 7 12.5 7.46875 12.5 8V13C12.5 13.5625 12.0312 14 11.5 14H3.5ZM3.5 8V13H11.5V8H3.5ZM10 9C10.25 9 10.5 9.25 10.5 9.5C10.5 9.78125 10.25 10 10 10H5C4.71875 10 4.5 9.78125 4.5 9.5C4.5 9.25 4.71875 9 5 9H10ZM3 3C3.25 3 3.5 3.25 3.5 3.5C3.5 3.78125 3.25 4 3 4C2.71875 4 2.5 3.78125 2.5 3.5C2.5 3.25 2.71875 3 3 3ZM6 3C6.25 3 6.5 3.25 6.5 3.5C6.5 3.78125 6.25 4 6 4C5.71875 4 5.5 3.78125 5.5 3.5C5.5 3.25 5.71875 3 6 3ZM9 3C9.25 3 9.5 3.25 9.5 3.5C9.5 3.78125 9.25 4 9 4C8.71875 4 8.5 3.78125 8.5 3.5C8.5 3.25 8.71875 3 9 3ZM12 3C12.25 3 12.5 3.25 12.5 3.5C12.5 3.78125 12.25 4 12 4C11.7188 4 11.5 3.78125 11.5 3.5C11.5 3.25 11.7188 3 12 3Z" fill="#D7282F"/>
</svg>
