<svg width="19" height="16" viewBox="0 0 19 16" fill="none" xmlns="http://www.w3.org/2000/svg">
<path d="M18.4375 13.625C18.5625 14.1875 18.4375 14.75 18.125 15.2188C17.7812 15.7188 17.1875 16 16.5625 16C16.0625 16 15.5938 15.8125 15.25 15.5L11.875 12.4688C10.6875 13.4375 9.15625 14 7.5 14C3.625 14 0.5 10.875 0.5 7C0.5 3.15625 3.625 0 7.5 0C11.3438 0 14.5 3.15625 14.5 7C14.5 8.0625 14.25 9.0625 13.8438 9.9375L17.5 12.4062C17.9688 12.6562 18.3125 13.125 18.4375 13.625ZM7.5 13C10.7812 13 13.5 10.3125 13.5 7C13.5 3.71875 10.7812 1 7.5 1C4.1875 1 1.5 3.71875 1.5 7C1.5 10.3125 4.1875 13 7.5 13ZM17.3125 14.625C17.625 14.1562 17.5 13.5312 17 13.25L13.3438 10.8125C13.125 11.1562 12.875 11.4688 12.625 11.7812L15.9062 14.75C16.0938 14.9375 16.3125 15 16.5625 15C16.8438 15 17.125 14.875 17.3125 14.625ZM16.4062 13.5625C16.6875 13.5312 16.9375 13.6875 16.9688 13.9688C17.0312 14.25 16.8438 14.5 16.5625 14.5625C16.2812 14.5938 16.0312 14.4062 16 14.125C15.9375 13.875 16.125 13.5938 16.4062 13.5625ZM11.8125 5.03125C12.2812 5.4375 12.5312 6.09375 12.4688 6.8125C12.4375 7.59375 12.0625 8.3125 11.5 8.75C11.0938 9.0625 10.6875 9.21875 10.3125 9.34375C9.9375 9.5 9.625 9.59375 9.3125 9.875L9.0625 10.125C8.4375 10.75 7.65625 11.5312 6.5625 11.5312C6.25 11.5312 5.9375 11.4688 5.625 11.3438C4.4375 10.9375 3.5625 9.78125 3.5 8.5625C3.4375 7.8125 3.6875 7.15625 3.9375 6.53125C4.09375 6.125 4.21875 5.78125 4.28125 5.40625C4.5 4.15625 4.9375 2.84375 6.65625 2.5625C7.90625 2.34375 8.65625 2.96875 9.375 3.5625L9.53125 3.6875C9.78125 3.90625 10.0938 4.03125 10.4375 4.1875C10.9375 4.40625 11.4062 4.59375 11.8125 5.03125ZM10.875 7.96875C11.2188 7.71875 11.4688 7.25 11.4688 6.75C11.5 6.5 11.4688 6.0625 11.125 5.71875C10.8438 5.4375 10.4688 5.28125 10.0625 5.125C9.65625 4.9375 9.25 4.78125 8.875 4.46875L8.75 4.34375C8.15625 3.84375 7.75 3.5 7.125 3.5C7 3.5 6.90625 3.53125 6.8125 3.53125C5.90625 3.6875 5.5 4.25 5.25 5.59375C5.1875 6.03125 5.03125 6.46875 4.875 6.875C4.65625 7.4375 4.46875 7.96875 4.5 8.46875C4.53125 9.3125 5.15625 10.125 5.96875 10.4062C6.9375 10.75 7.5 10.25 8.375 9.40625L8.625 9.15625C9.09375 8.75 9.5625 8.5625 9.96875 8.40625C10.2812 8.28125 10.5938 8.1875 10.875 7.96875ZM7.5 5.25C8.4375 5.25 9.25 6.0625 9.25 7C9.25 7.96875 8.4375 8.75 7.5 8.75C6.53125 8.75 5.75 7.96875 5.75 7C5.75 6.0625 6.53125 5.25 7.5 5.25ZM7.5 7.75C7.90625 7.75 8.25 7.4375 8.25 7C8.25 6.59375 7.90625 6.25 7.5 6.25C7.0625 6.25 6.75 6.59375 6.75 7C6.75 7.4375 7.0625 7.75 7.5 7.75Z" fill="#D7282F"/>
</svg>
