<svg width="17" height="22" viewBox="0 0 17 22" fill="none" xmlns="http://www.w3.org/2000/svg">
<path d="M16.5 11C16.5 15.4375 12.9062 19 8.5 19C4.0625 19 0.5 15.4375 0.5 11C0.5 9.34375 1 7.8125 1.875 6.53125C2.03125 6.28125 2.34375 6.21875 2.5625 6.375C2.78125 6.53125 2.84375 6.84375 2.6875 7.09375C1.9375 8.21875 1.5 9.5625 1.5 11C1.5 14.875 4.625 18 8.5 18C12.3438 18 15.5 14.875 15.5 11C15.5 7.3125 12.625 4.28125 9 4.03125V6.5C9 6.78125 8.75 7 8.5 7C8.21875 7 8 6.78125 8 6.5V3.5C8 3.25 8.21875 3 8.5 3C12.9062 3 16.5 6.59375 16.5 11ZM8.84375 10.6562C9.03125 10.8438 9.03125 11.1875 8.84375 11.375C8.65625 11.5625 8.3125 11.5625 8.125 11.375L5.125 8.375C4.9375 8.1875 4.9375 7.84375 5.125 7.65625C5.3125 7.46875 5.65625 7.46875 5.84375 7.65625L8.84375 10.6562Z" fill="#D7282F"/>
</svg>
