<svg width="65" height="65" viewBox="0 0 65 65" fill="none" xmlns="http://www.w3.org/2000/svg">
<path d="M10.01 35.6757V39.3207M55.49 35.6757V39.3207M55.7976 30.3566V30.0479C55.7976 20.5851 47.8505 12.9033 38.046 12.9033H27.4663C17.6495 12.9152 9.70245 20.5851 9.70245 30.0597V30.3684M14.1188 27.6377C15.2998 21.535 20.8602 16.8926 27.5156 16.8926M25.2274 22.651H27.5156M20.4666 26.3079H22.767M29.1763 26.3079H31.4645M33.6419 21.6774H35.9423M36.1884 26.3079H38.4765M40.0142 21.6774H42.3024M40.9369 18.6023H43.2373M42.6345 26.3079H44.9227M46.5342 22.651H48.8347M49.1545 27.1984H51.455M8.49686 42.0989H9.14886C9.86237 42.0989 10.5513 42.3839 11.0557 42.8825L13.676 45.4946C14.5494 46.3613 15.9887 46.3613 16.8621 45.5065L19.4947 42.9419C20.3928 42.0633 21.869 42.0989 22.7178 43.0013L25.2274 45.6727C26.1008 46.5988 27.614 46.6107 28.4997 45.6964L31.1077 43.0013C31.9934 42.0989 33.482 42.0989 34.3554 43.0013L36.9634 45.6964C37.8491 46.6107 39.3623 46.5988 40.2357 45.6727L42.7453 43.0013C43.6064 42.0989 45.0826 42.0633 45.9684 42.9419L48.601 45.5065C49.4744 46.3613 50.9137 46.3494 51.7871 45.4946L54.4074 42.8825C54.9118 42.3839 55.6007 42.0989 56.3142 42.0989H56.9662M10.4898 30.2497H55.0102C56.5661 30.2497 57.8274 31.467 57.8274 32.9686C57.8274 34.4702 56.5661 35.6875 55.0102 35.6875H10.4898C8.93391 35.6875 7.67264 34.4702 7.67264 32.9686C7.67264 31.467 8.93391 30.2497 10.4898 30.2497ZM55.367 39.3207H10.133C9.23498 39.3207 8.50916 40.0212 8.50916 40.8879V43.8324C8.50916 47.8573 11.8922 51.1224 16.0625 51.1224H49.4375C53.6078 51.1224 56.9908 47.8573 56.9908 43.8324V40.8879C56.9908 40.0212 56.265 39.3207 55.367 39.3207Z" stroke="#ADADAD" stroke-width="1.5" stroke-linecap="round" stroke-linejoin="round"/>
</svg>
