<svg width="65" height="65" viewBox="0 0 65 65" fill="none" xmlns="http://www.w3.org/2000/svg">
<path d="M19.9563 14.7503C22.8363 11.5703 27.7263 11.1503 31.1163 13.8803L50.2263 29.2903C53.6063 32.0203 54.2363 36.8903 51.7363 40.3803M44.5563 49.2703C41.6763 52.4603 36.7863 52.8703 33.3963 50.1503L14.2863 34.7403C10.9063 32.0103 10.2763 27.1403 12.7763 23.6503M48.6463 43.1803L48.4563 43.0303C47.7063 42.4303 46.7663 42.1103 45.8063 42.1403L43.9563 42.1903C42.1263 42.2403 40.4863 41.0503 39.9763 39.3003L39.2463 36.8103C38.8963 35.6203 37.8863 34.7503 36.6563 34.5803L33.2363 34.1103C31.7563 33.9103 30.5063 32.9003 29.9963 31.5003L29.0063 28.8003C28.4663 27.3103 27.0963 26.2703 25.5063 26.1603L23.4963 26.0203C21.6663 25.8903 20.1563 24.5403 19.8263 22.7403L19.4263 20.5903C19.2863 19.8503 18.8963 19.1903 18.3063 18.7203L17.8563 18.3603M20.0649 14.8445L51.6159 40.2849C54.0752 42.2678 54.4613 45.8688 52.4784 48.3281C50.4954 50.7873 46.8944 51.1734 44.4352 49.1905L12.8841 23.7501C10.4249 21.7672 10.0387 18.1662 12.0217 15.7069C14.0046 13.2477 17.6056 12.8616 20.0649 14.8445Z" stroke="#ADADAD" stroke-width="1.5" stroke-linecap="round" stroke-linejoin="round"/>
</svg>
