<svg width="65" height="65" viewBox="0 0 65 65" fill="none" xmlns="http://www.w3.org/2000/svg">
<path d="M18.6605 43.1244L24.711 41.5496M18.6605 48.3145L24.711 46.7237M18.6605 53.4886L24.711 51.8978M25.757 20.9015L19.7064 22.4923M25.757 15.7275L19.7064 17.3183M25.757 10.5534L19.7064 12.1281M45.8237 34.1902L39.7892 35.781M45.8237 29.0162L39.7892 30.607M45.8237 23.8421L39.7892 25.4329M19.272 34.6884C19.272 34.6884 13.7041 36.8737 13.4306 42.1763C12.4329 46.1935 11.5156 51.48 14.4283 55.5936C16.5363 58.518 18.2582 61.4265 22.6513 60.7034C25.6605 59.9803 29.0398 58.3252 29.2329 55.8667C29.426 53.4082 29.78 49.9535 30.3271 47.7521C30.8743 45.5507 32.0651 41.4532 29.1363 37.886C26.8513 35.4275 23.649 33.2261 19.272 34.6884ZM25.1455 29.3375C25.1455 29.3375 30.7133 27.1522 30.9869 21.8496C31.9846 17.8324 32.9018 12.5459 29.9892 8.43234C27.8811 5.50786 26.1593 2.59945 21.7662 3.32254C18.757 4.04562 15.3777 5.70069 15.1846 8.15918C14.9915 10.6177 14.6375 14.0724 14.0903 16.2738C13.5432 18.4752 12.3524 22.5727 15.2811 26.1399C17.5662 28.5984 20.7685 30.7998 25.1455 29.3375ZM45.2283 42.6423C45.2283 42.6423 50.7961 40.457 51.0697 35.1544C52.0674 31.1372 52.9846 25.8507 50.072 21.7371C47.9639 18.8126 46.2421 15.9042 41.849 16.6273C38.8398 17.3504 35.4605 19.0055 35.2674 21.4639C35.0743 23.9224 34.7202 27.3772 34.1731 29.5786C33.626 31.78 32.4352 35.8774 35.3639 39.4447C37.649 41.9032 40.8513 44.1045 45.2283 42.6423Z" stroke="#ADADAD" stroke-width="1.5" stroke-linecap="round" stroke-linejoin="round"/>
</svg>
