<svg width="65" height="65" viewBox="0 0 65 65" fill="none" xmlns="http://www.w3.org/2000/svg">
<path d="M47.0403 14.5069L46.5565 8.54398C46.5242 8.1558 46.836 7.82153 47.2231 7.82153H51.2554C51.6425 7.82153 51.9543 8.1558 51.9221 8.54398L51.4382 14.5069M49.2339 14.1942V56.01M32.0726 16.4801C28.3737 16.4801 25.4489 19.7797 25.707 23.6723L27.5242 51.5351C27.6855 54.0475 29.6747 56.01 32.0726 56.01C34.4704 56.01 36.4597 54.0583 36.621 51.5351L38.4382 23.6723C38.6855 19.7797 35.7715 16.4801 32.0726 16.4801ZM32.0726 16.4801L32.0726 7.82153M36.8575 47.7719H33.6855M26.793 40.418H30.2124M37.8468 32.5681H34.0726M25.793 25.0417H29.7285M26.1371 9.75166C26.1371 9.75166 32.0726 11.8974 32.0726 14.8412C32.0726 11.8974 38.0081 9.75166 38.0081 9.75166M16.3629 40.4827C12.0511 40.4827 8.55646 43.4804 8.55646 47.7612C8.55646 52.6134 14.6317 53.6162 16.3629 56.2041C18.0941 53.627 24.1694 52.6242 24.1694 47.7612C24.1694 43.4696 20.6747 40.4827 16.3629 40.4827ZM16.3629 40.4827L16.3629 27.3924M20.8683 47.2328C20.8898 47.4053 20.9005 47.5778 20.9005 47.7612C20.9005 48.7316 20.2661 49.3678 18.4274 50.5431M49.2393 14.1942C53.4942 14.1942 56.9436 17.6556 56.9436 21.9255V48.2895C56.9436 52.5594 53.4942 56.0208 49.2393 56.0208C44.9843 56.0208 41.535 52.5594 41.535 48.2895V21.9255C41.535 17.6556 44.9843 14.1942 49.2393 14.1942ZM20.4597 31.3605H20.3952C21.4919 30.8213 22.2554 29.6891 22.2554 28.3736C22.2554 26.7023 21.0296 25.3329 19.4382 25.0849V23.5321C19.4382 22.7989 19.1156 22.0872 18.5565 21.6128L16.9328 20.2218C16.5887 19.9199 16.0726 19.9199 15.7285 20.2218L14.1048 21.6128C13.5457 22.098 13.2231 22.7989 13.2231 23.5321V25.0633C11.5672 25.2574 10.2769 26.6591 10.2769 28.3736C10.2769 29.6999 11.0511 30.8321 12.1586 31.3712C11.1479 31.4359 10.3414 32.2662 10.3414 33.2906V33.7866C10.3414 35.7706 11.9436 37.3773 13.922 37.3773H18.7823C20.7608 37.3773 22.3629 35.7706 22.3629 33.7866V33.2906C22.3629 32.2231 21.5027 31.3605 20.4382 31.3605H20.4597Z" stroke="#ADADAD" stroke-width="1.5" stroke-linecap="round" stroke-linejoin="round"/>
</svg>
