<svg width="65" height="65" viewBox="0 0 65 65" fill="none" xmlns="http://www.w3.org/2000/svg">
<path d="M32.7956 49.7803C27.6397 54.9647 19.5855 55.2561 14.7804 50.4398C10.0058 45.6236 10.3109 37.5248 15.4668 32.3405H15.4821C17.2516 30.4845 19.5092 28.9353 22.0872 27.9076C26.2973 26.2358 29.1651 26.7573 31.6821 24.2418C32.5058 23.4135 34.0922 21.8183 34.0922 21.8183C35.1295 20.7753 36.7465 20.7446 37.738 21.7262L40.56 24.5639L43.3821 27.3861C44.3583 28.3678 44.3278 30.009 43.2905 31.052C43.2905 31.052 41.7041 32.6472 40.8804 33.4755C38.3787 35.991 38.8973 38.89 37.2346 43.1234C36.2126 45.7309 34.6719 47.9857 32.8109 49.7649M27.8075 49.9183C28.7838 49.4275 29.7295 48.7833 30.5685 47.9857C30.6448 47.8783 30.7363 47.7863 30.8431 47.6942C31.2244 47.3261 31.5905 46.9427 31.9261 46.5439M14.2312 41.8963C14.2007 44.3198 15.055 46.6666 16.7939 48.4305C18.6702 50.3171 21.2177 51.1607 23.8109 50.992M53.1143 18.9347C54.4414 17.6002 54.4414 15.4528 53.1143 14.1337C52.5499 13.5662 51.8482 13.2441 51.116 13.1674C51.0244 12.4312 50.7041 11.7256 50.155 11.1581C48.8278 9.82362 46.6922 9.82362 45.3804 11.1581C44.16 12.3851 44.0685 14.3331 45.1211 15.6676L38.4244 22.4011L42.0244 26.021L48.7363 19.2721C50.0634 20.2384 51.9244 20.1311 53.1143 18.9347Z" stroke="#ADADAD" stroke-width="1.5" stroke-linecap="round" stroke-linejoin="round"/>
</svg>
