<svg width="65" height="65" viewBox="0 0 65 65" fill="none" xmlns="http://www.w3.org/2000/svg">
<path d="M48.6844 29.3154C49.9675 30.3338 51.1823 31.4459 52.3153 32.6518C52.9159 33.295 53.3936 33.8577 53.7485 34.2865C54.2536 34.9163 54.472 35.7202 54.3082 36.4974C53.1752 41.656 46.0227 50.3387 39.0203 50.3387H22.1628C15.4061 50.3387 9.9325 44.9656 9.9325 38.3331C9.9325 33.7639 11.8162 29.6102 14.8737 26.6222C17.9313 23.6342 22.1491 21.7717 26.8037 21.7717H26.8583C31.8269 21.7717 36.6862 22.8034 41.1361 24.7597M18.7503 44.7915L20.2245 45.5954C21.8079 46.4529 23.5823 46.9085 25.3841 46.9085H31.9361M12.9491 36.9529C12.9491 36.9529 13.6999 39.807 15.6108 42.1518M48.6844 21.7583L47.2648 23.795M50.9776 24.0094L48.9165 25.4029M31.9634 22.1469C33.6013 21.0883 35.0346 20.3246 35.9355 19.869C36.5497 19.5608 37.2868 19.5876 37.8874 19.9494L38.6654 20.405L39.4298 20.874C40.0304 21.2223 40.3853 21.8521 40.3853 22.5355C40.3853 23.0312 40.3853 23.6744 40.3444 24.4247M38.5289 17.5108L37.628 19.8154M41.2999 19.1723L39.6209 21.008M42.5693 40.9593C46.8007 36.0954 48.6981 29.6102 49.2987 27.0644C49.4625 26.3944 49.2577 25.7111 48.7663 25.2153L47.4832 23.9558C46.9918 23.4734 46.282 23.2724 45.5996 23.4332C43.0061 24.0362 36.3996 25.8852 31.4447 30.039C28.0185 32.9198 27.9367 38.1187 31.1307 41.2541C34.3248 44.3895 39.6209 44.3091 42.5556 40.9459L42.5693 40.9593ZM52.2607 20.4988C52.8613 20.4452 53.4892 20.6328 53.9533 21.0883C54.7723 21.8923 54.7723 23.192 53.9533 23.996C53.1343 24.7999 51.8102 24.7999 50.9912 23.996C50.5272 23.5404 50.3224 22.924 50.3907 22.3345C49.7901 22.3881 49.1622 22.2005 48.6981 21.7449C47.8791 20.941 47.8791 19.6412 48.6981 18.8373C49.5171 18.0333 50.8411 18.0333 51.6601 18.8373C52.1242 19.2929 52.3289 19.9092 52.2607 20.4988ZM41.6957 15.4607C42.269 15.2597 42.9242 15.3133 43.4838 15.6483C44.4666 16.2379 44.7806 17.5108 44.18 18.4755C43.5794 19.4403 42.2826 19.7484 41.2999 19.1589C40.7402 18.8239 40.399 18.2745 40.3171 17.685C39.7438 17.886 39.0886 17.8324 38.5289 17.4974C37.5461 16.9078 37.2322 15.6349 37.8328 14.6702C38.4334 13.7054 39.7301 13.3972 40.7129 13.9868C41.2726 14.3218 41.6138 14.8711 41.6957 15.4607Z" stroke="#ADADAD" stroke-width="1.5" stroke-linecap="round" stroke-linejoin="round"/>
</svg>
