<svg width="65" height="65" viewBox="0 0 65 65" fill="none" xmlns="http://www.w3.org/2000/svg">
<path d="M32.5289 12.0393C32.6227 11.8615 32.8773 11.8615 32.9711 12.0393L38.5815 22.6729C38.8347 23.1528 39.2962 23.4881 39.8309 23.5806L51.6778 25.6304C51.8758 25.6647 51.9545 25.9069 51.8144 26.051L43.4349 34.6728C43.0568 35.0619 42.8805 35.6045 42.9577 36.1415L44.6691 48.042C44.6977 48.241 44.4917 48.3906 44.3114 48.302L33.5222 42.9969C33.0352 42.7574 32.4648 42.7574 31.9778 42.9969L21.1887 48.302C21.0083 48.3907 20.8023 48.241 20.8309 48.042L22.5423 36.1416C22.6195 35.6044 22.4432 35.0619 22.065 34.6728L13.6856 26.051C13.5455 25.9069 13.6242 25.6647 13.8222 25.6304L25.6691 23.5806C26.2038 23.4881 26.6653 23.1528 26.9185 22.6729L32.5289 12.0393Z" stroke="#ADADAD" stroke-width="1.5" stroke-linejoin="round"/>
</svg>
