<svg width="65" height="65" viewBox="0 0 65 65" fill="none" xmlns="http://www.w3.org/2000/svg">
<path d="M16.1382 25.9889L13.9537 14.264C13.9241 14.1024 14.0422 13.9408 14.2046 13.9261L18.7507 13.6028C18.8983 13.6028 19.0311 13.7057 19.0459 13.8526L20.6252 25.9743M22.6179 25.9889L21.2747 9.63573C21.2747 9.47411 21.378 9.34187 21.5404 9.32718L25.9684 9.00393C26.116 9.00393 26.2489 9.10678 26.2636 9.25371L26.7212 14.073M27.0754 32.4538L26.1751 14.3815C26.1751 14.2199 26.2931 14.0877 26.4555 14.0877H30.9573M30.9573 14.0877L31.8725 33.7615M30.9573 14.0877L30.7212 10.6348C30.7212 10.4732 30.8393 10.341 31.0016 10.341H35.6363C35.7839 10.341 35.9168 10.4585 35.9168 10.6202L36.1677 32.733M37.319 32.0277L38.5441 8.37214C38.5441 8.22521 38.6769 8.10767 38.8245 8.10767H43.3263C43.4887 8.10767 43.6216 8.2399 43.6068 8.40152L42.5441 25.9743M42.7507 22.6537L46.116 12.5155C46.1603 12.3686 46.3227 12.2951 46.4703 12.3392L50.9426 13.7351C51.0902 13.7791 51.164 13.9261 51.1345 14.073L47.7987 25.9889M41.1123 25.9889C40.3743 30.4115 36.5072 33.7762 31.8577 33.7762C27.2083 33.7762 23.3559 30.4115 22.6031 25.9889H13.6437C13.4666 25.9889 13.3337 26.1506 13.3632 26.3269L18.7655 55.9184H44.9647L50.3669 26.3269C50.3965 26.1506 50.2636 25.9889 50.0865 25.9889H41.1123Z" stroke="#ADADAD" stroke-width="1.5" stroke-linecap="round" stroke-linejoin="round"/>
</svg>
