<svg width="14" height="13" viewBox="0 0 14 13" fill="none" xmlns="http://www.w3.org/2000/svg">
<path d="M13.125 6.75C13.125 10.1406 10.3633 12.875 7 12.875C5.08594 12.875 3.33594 12.0273 2.16016 10.5234C1.99609 10.332 2.05078 10.0586 2.24219 9.92188C2.43359 9.75781 2.70703 9.8125 2.84375 10.0039C3.85547 11.2891 5.35938 12 7 12C9.87109 12 12.25 9.64844 12.25 6.75C12.25 3.87891 9.87109 1.5 7 1.5C5.11328 1.5 3.39062 2.51172 2.46094 4.125H4.8125C5.03125 4.125 5.25 4.34375 5.25 4.5625C5.25 4.80859 5.03125 5 4.8125 5H1.3125C1.06641 5 0.875 4.80859 0.875 4.5625V1.0625C0.875 0.84375 1.06641 0.625 1.3125 0.625C1.53125 0.625 1.75 0.84375 1.75 1.0625V3.63281C2.84375 1.77344 4.8125 0.652344 7 0.652344C10.3633 0.652344 13.125 3.38672 13.125 6.75Z" fill="#1D1D1B"/>
</svg>
