<svg width="21" height="24" viewBox="0 0 21 24" fill="none" xmlns="http://www.w3.org/2000/svg">
<path d="M18.3844 5.13261C18.2209 5.04878 18.0616 4.95726 17.9072 4.85774C17.4585 4.56399 17.0473 4.21777 16.6823 3.82674C15.7687 2.79126 15.4276 1.74074 15.3019 1.0054H15.3071C15.2021 0.394866 15.2454 0 15.2522 0H11.0911V15.9383C11.0911 16.1524 11.0911 16.3639 11.0821 16.5728C11.0821 16.5988 11.0795 16.6228 11.0782 16.6509C11.0782 16.6624 11.0782 16.6743 11.0756 16.6864V16.6954C10.9865 17.8566 10.32 18.8979 9.29793 19.4732C8.77332 19.7689 8.1799 19.9241 7.57614 19.9231C5.63726 19.9231 4.066 18.3571 4.066 16.4231C4.066 14.4891 5.63726 12.923 7.57614 12.923C7.94311 12.9227 8.30782 12.98 8.6567 13.0926L8.66187 8.89568C6.52045 8.62177 4.36062 9.24734 2.70569 10.6217C1.98854 11.2389 1.38543 11.9756 0.92381 12.7983C0.748078 13.0984 0.0855258 14.3038 0.00508924 16.2602C-0.0453047 17.3706 0.291301 18.5212 0.451851 18.9967V19.0067C0.552639 19.2867 0.943839 20.2421 1.58152 21.0476C2.09547 21.6936 2.70278 22.2613 3.38407 22.732V22.722L3.39408 22.732C5.40855 24.0878 7.64204 23.9988 7.64204 23.9988C8.02872 23.9834 9.32378 23.9988 10.7946 23.3083C12.4259 22.5429 13.3546 21.4024 13.3546 21.4024C13.9481 20.7208 14.4197 19.9446 14.7499 19.1059C15.1265 18.1254 15.2522 16.9495 15.2522 16.4794V8.02403C15.3026 8.05411 15.9751 8.49441 15.9751 8.49441C15.9751 8.49441 16.9436 9.10943 18.4551 9.50973C19.5392 9.79484 21 9.85468 21 9.85468V5.76299C20.4883 5.81803 19.4488 5.65803 18.385 5.13261H18.3844Z" fill="#DDDDDD"/>
</svg>
