<svg width="27" height="22" viewBox="0 0 27 22" fill="none" xmlns="http://www.w3.org/2000/svg">
<path d="M13.5651 0.241699C14.2723 0.245734 16.0414 0.263218 17.9218 0.339878L18.5892 0.369466C20.4815 0.459575 22.3724 0.615585 23.3113 0.880532C24.5627 1.23828 25.5452 2.27924 25.8776 3.59994C26.4073 5.69801 26.4735 9.78923 26.4814 10.7804L26.4828 10.9849V11.2189C26.4735 12.2101 26.4073 16.3026 25.8776 18.3994C25.5412 19.7241 24.5574 20.7664 23.3113 21.1188C22.3724 21.3837 20.4815 21.5397 18.5892 21.6298L17.9218 21.6608C16.0414 21.7361 14.2723 21.7549 13.5651 21.7576L13.254 21.7589H12.9163C11.4199 21.7495 5.16175 21.6809 3.17014 21.1188C1.9201 20.761 0.936212 19.7201 0.603837 18.3994C0.0741555 16.3013 0.00794522 12.2101 0 11.2189V10.7804C0.00794522 9.78923 0.0741555 5.69666 0.603837 3.59994C0.940185 2.27521 1.92407 1.2329 3.17147 0.881877C5.16175 0.318359 11.4213 0.249769 12.9176 0.241699H13.5651ZM10.5923 6.2938V15.7082L18.5375 11.001L10.5923 6.2938Z" fill="#DDDDDD"/>
</svg>
