<svg width="65" height="65" viewBox="0 0 65 65" fill="none" xmlns="http://www.w3.org/2000/svg">
<path d="M34.0589 17.9312C35.0165 17.9366 37.4122 17.9603 39.9585 18.0641L40.8623 18.1042C43.4248 18.2262 45.9854 18.4375 47.2568 18.7962C48.9514 19.2807 50.2819 20.6903 50.732 22.4788C51.4493 25.3199 51.539 30.8601 51.5497 32.2023L51.5515 32.4792V32.7961C51.539 34.1383 51.4493 39.6803 50.732 42.5196C50.2766 44.3136 48.9442 45.725 47.2568 46.2022C45.9854 46.561 43.4248 46.7722 40.8623 46.8942L39.9585 46.9361C37.4122 47.0381 35.0165 47.0636 34.0589 47.0673L33.6375 47.0691H33.1803C31.1539 47.0563 22.6793 46.9635 19.9824 46.2022C18.2896 45.7177 16.9572 44.3081 16.5071 42.5196C15.7899 39.6785 15.7002 34.1383 15.6895 32.7961V32.2023C15.7002 30.8601 15.7899 25.3181 16.5071 22.4788C16.9626 20.6849 18.295 19.2734 19.9842 18.7981C22.6793 18.035 31.1557 17.9421 33.1821 17.9312H34.0589ZM30.0332 26.1267V38.8753L40.7924 32.501L30.0332 26.1267Z" fill="#DDDDDD"/>
</svg>
