<svg width="12" height="16" viewBox="0 0 12 16" fill="none" xmlns="http://www.w3.org/2000/svg">
<path d="M9 0C10.6562 0 12 1.34375 12 3V14C12 15.125 11.0938 16 10 16H2C0.875 16 0 15.125 0 14V3C0 1.34375 1.3125 0 3 0H9ZM10.5 14V6.5H9V10.75C9 11.1875 8.65625 11.5 8.25 11.5C7.8125 11.5 7.5 11.1875 7.5 10.75V6.5H1.5V14C1.5 14.2812 1.71875 14.5 2 14.5H10C10.25 14.5 10.5 14.2812 10.5 14ZM10.5 5V3C10.5 2.1875 9.8125 1.5 9 1.5H3C2.15625 1.5 1.5 2.1875 1.5 3V5H7.5V3.75C7.5 3.34375 7.8125 3 8.25 3C8.65625 3 9 3.34375 9 3.75V5H10.5Z" fill="#0D0D0D"/>
</svg>
