<svg width="20" height="16" viewBox="0 0 20 16" fill="none" xmlns="http://www.w3.org/2000/svg">
<path d="M7.4375 14.5C7.625 15.0938 7.9375 15.5938 8.375 16H3C2.71875 16 2.5 15.9062 2.3125 15.75C2.125 15.5625 2 15.3438 2 15.0938L1.03125 5.5H0.75C0.53125 5.5 0.34375 5.4375 0.21875 5.28125C0.0625 5.15625 0 4.96875 0 4.75C0 4.5625 0.0625 4.375 0.21875 4.21875C0.34375 4.09375 0.53125 4 0.75 4H4.90625L5.65625 0.96875C5.71875 0.6875 5.875 0.4375 6.09375 0.28125C6.3125 0.09375 6.59375 0 6.875 0H8.25C8.4375 0 8.625 0.09375 8.75 0.25C8.90625 0.375 9 0.5625 9 0.75C9 0.96875 8.90625 1.15625 8.75 1.28125C8.625 1.4375 8.4375 1.5 8.25 1.5H7.0625L6.4375 4H10.25C10.4375 4 10.625 4.09375 10.7812 4.21875C10.9062 4.375 11 4.5625 11 4.75C11 4.96875 10.9062 5.15625 10.7812 5.28125C10.625 5.4375 10.4375 5.5 10.25 5.5H2.53125L3.4375 14.5H7.4375ZM16.125 8.625C16.0312 8.53125 16 8.40625 16 8.25C16 8.15625 16 8.0625 16.0625 8C16.125 7.90625 16.1875 7.84375 16.2812 7.8125C16.375 7.75 16.5 7.75 16.5938 7.78125C16.6875 7.78125 16.7812 7.84375 16.8438 7.90625C16.9062 7.96875 16.9688 8.0625 16.9688 8.15625C17 8.25 16.9688 8.375 16.9375 8.46875C16.9062 8.53125 16.8438 8.625 16.75 8.6875C16.6875 8.75 16.5938 8.75 16.5 8.75C16.3438 8.75 16.2188 8.71875 16.125 8.625ZM13.625 8.125C13.5312 8.03125 13.5 7.90625 13.5 7.75C13.5 7.65625 13.5 7.5625 13.5625 7.5C13.625 7.40625 13.6875 7.34375 13.7812 7.3125C13.875 7.25 14 7.25 14.0938 7.28125C14.1875 7.28125 14.2812 7.34375 14.3438 7.40625C14.4062 7.46875 14.4688 7.5625 14.4688 7.65625C14.5 7.75 14.4688 7.875 14.4375 7.96875C14.4062 8.03125 14.3438 8.125 14.25 8.1875C14.1875 8.25 14.0938 8.25 14 8.25C13.8438 8.25 13.7188 8.21875 13.625 8.125ZM11.125 8.625C11.0312 8.53125 11 8.40625 11 8.25C11 8.15625 11 8.0625 11.0625 8C11.125 7.90625 11.1875 7.84375 11.2812 7.8125C11.375 7.75 11.5 7.75 11.5938 7.78125C11.6875 7.78125 11.7812 7.84375 11.8438 7.90625C11.9062 7.96875 11.9688 8.0625 11.9688 8.15625C12 8.25 11.9688 8.375 11.9375 8.46875C11.9062 8.53125 11.8438 8.625 11.75 8.6875C11.6875 8.75 11.5938 8.75 11.5 8.75C11.3438 8.75 11.2188 8.71875 11.125 8.625ZM19.875 12.25C19.8125 12.4062 19.7188 12.5625 19.5938 12.6562C19.6875 12.9062 19.7188 13.1562 19.75 13.375C19.7188 14.0938 19.4688 14.75 18.9688 15.25C18.4688 15.75 17.8125 16 17.125 16H10.875C10.1562 16 9.5 15.75 9 15.25C8.5 14.75 8.25 14.0938 8.25 13.375C8.25 13.1562 8.28125 12.9062 8.375 12.6562C8.25 12.5312 8.15625 12.4062 8.09375 12.2188C8 12.0625 7.96875 11.875 8 11.6875C8 11.5312 8.0625 11.3438 8.125 11.1875C8.21875 11.0312 8.34375 10.9062 8.46875 10.7812C8.28125 10.4375 8.21875 10 8.25 9.59375C8.28125 9.1875 8.40625 8.8125 8.65625 8.46875C9.28125 7.6875 10.0938 7.03125 11.0312 6.625C11.9375 6.1875 12.9688 5.96875 14 6C15 5.96875 16.0312 6.1875 16.9375 6.625C17.875 7.03125 18.6875 7.6875 19.3125 8.46875C19.5625 8.8125 19.6875 9.1875 19.7188 9.59375C19.75 10 19.6875 10.4375 19.5 10.7812C19.625 10.9062 19.75 11.0625 19.8438 11.2188C19.9375 11.375 19.9688 11.5625 20 11.75C20 11.9375 19.9375 12.0938 19.875 12.25ZM9.875 9.3125C9.78125 9.4375 9.75 9.5625 9.71875 9.71875C9.71875 9.84375 9.75 9.96875 9.8125 10.0938C9.875 10.2188 9.96875 10.3438 10.0938 10.4062C10.2188 10.4688 10.3438 10.5 10.5 10.5H17.4688C17.625 10.5 17.75 10.4688 17.875 10.4062C18 10.3438 18.0938 10.2188 18.1562 10.0938C18.2188 10 18.25 9.84375 18.2188 9.71875C18.2188 9.5625 18.1875 9.4375 18.0938 9.3125C17.5938 8.71875 16.9688 8.25 16.25 7.9375C15.5312 7.625 14.75 7.46875 14 7.5C13.2188 7.46875 12.4375 7.625 11.7188 7.9375C11 8.25 10.375 8.71875 9.875 9.3125ZM17.9062 14.1875C18.125 13.9688 18.25 13.6875 18.25 13.375C18.25 13.2812 18.1875 13.1875 18.125 13.125C18.0625 13.0625 17.9688 13 17.875 13H10.125C10 13 9.90625 13.0625 9.84375 13.125C9.78125 13.1875 9.75 13.2812 9.75 13.375C9.75 13.6875 9.84375 13.9688 10.0625 14.1875C10.2812 14.4062 10.5625 14.5 10.875 14.5H17.125C17.4062 14.5 17.6875 14.4062 17.9062 14.1875Z" fill="#0D0D0D"/>
</svg>
