<svg width="64" height="64" viewBox="0 0 64 64" fill="none" xmlns="http://www.w3.org/2000/svg">
<path d="M0 32C0 14.3269 14.3269 0 32 0C49.6731 0 64 14.3269 64 32C64 49.6731 49.6731 64 32 64C14.3269 64 0 49.6731 0 32Z" fill="#1D1D1B"/>
<path d="M37.6094 28.3984L33.5078 32.5L37.6094 36.6406C38.1172 37.1094 38.1172 37.9297 37.6094 38.3984C37.1406 38.9062 36.3203 38.9062 35.8516 38.3984L31.75 34.2969L27.6094 38.3984C27.1406 38.9062 26.3203 38.9062 25.8516 38.3984C25.3438 37.9297 25.3438 37.1094 25.8516 36.6406L29.9531 32.5L25.8516 28.3984C25.3438 27.9297 25.3438 27.1094 25.8516 26.6406C26.3203 26.1328 27.1406 26.1328 27.6094 26.6406L31.75 30.7422L35.8516 26.6406C36.3203 26.1328 37.1406 26.1328 37.6094 26.6406C38.1172 27.1094 38.1172 27.9297 37.6094 28.3984Z" fill="#D6D6D6"/>
</svg>
