<svg width="65" height="65" viewBox="0 0 65 65" fill="none" xmlns="http://www.w3.org/2000/svg">
<path d="M16.339 47.9404V47.883C16.3825 45.7472 18.1392 44.0557 20.3023 44.07H48.1614M25.8192 35.5841H38.6671M27.5177 38.9527H36.9831M20.4184 51.9397C18.1537 51.9253 16.339 50.1049 16.339 47.8687V16.1465C16.339 13.9103 18.1682 12.0898 20.4329 12.0898H48.1614V44.0557C46.9419 44.9875 46.216 46.4352 46.216 47.969C46.216 49.5172 46.9419 50.9793 48.1614 51.9397H20.4184ZM38.6669 31.4557V27.7288C40.9462 27.4134 42.4705 25.2059 41.8753 22.941C41.5414 21.6653 40.5542 20.6189 39.2621 20.2462C38.0862 19.9021 36.8667 20.1028 35.9086 20.7622C35.7489 18.6407 33.8761 17.0639 31.7421 17.2216C29.9129 17.3506 28.4176 18.741 28.1708 20.5328C26.0802 19.4434 23.438 20.4182 22.6541 22.726C22.2912 23.7868 22.4073 24.9765 23.017 25.9226C23.6558 26.926 24.6866 27.5711 25.8044 27.7288V31.4557C25.8044 31.6851 25.9931 31.8714 26.2254 31.8714H38.2314C38.4637 31.8714 38.6524 31.6851 38.6524 31.4557H38.6669Z" stroke="#ADADAD" stroke-width="1.5" stroke-linecap="round" stroke-linejoin="round"/>
</svg>
