<svg width="19" height="16" viewBox="0 0 19 16" fill="none" xmlns="http://www.w3.org/2000/svg">
<path d="M8.91602 1C8.91602 0.59375 9.22852 0.25 9.66602 0.25C10.0723 0.25 10.416 0.59375 10.416 1C10.416 1.4375 10.0723 1.75 9.66602 1.75C9.22852 1.75 8.91602 1.4375 8.91602 1ZM13.1973 5.46875C15.1348 7.4375 15.1348 10.5938 13.1973 12.5625C11.2285 14.5 8.07227 14.5 6.10352 12.5625C4.16602 10.5938 4.16602 7.4375 6.10352 5.46875C8.07227 3.53125 11.2285 3.53125 13.1973 5.46875ZM12.4785 11.8438C14.041 10.2812 14.041 7.75 12.4785 6.1875C11.041 4.75 8.75977 4.625 7.19727 5.84375L10.0098 8.65625C10.1973 8.84375 10.1973 9.1875 10.0098 9.375C9.82227 9.5625 9.47852 9.5625 9.29102 9.375L6.47852 6.5625C5.25977 8.125 5.38477 10.4062 6.82227 11.8438C8.38477 13.4062 10.916 13.4062 12.4785 11.8438ZM18.416 9C18.416 9.4375 18.0723 9.75 17.666 9.75C17.2285 9.75 16.916 9.4375 16.916 9C16.916 8.59375 17.2285 8.25 17.666 8.25C18.0723 8.25 18.416 8.59375 18.416 9ZM0.916016 9C0.916016 8.59375 1.22852 8.25 1.66602 8.25C2.07227 8.25 2.41602 8.59375 2.41602 9C2.41602 9.4375 2.07227 9.75 1.66602 9.75C1.22852 9.75 0.916016 9.4375 0.916016 9ZM4.41602 3C4.41602 3.4375 4.07227 3.75 3.66602 3.75C3.22852 3.75 2.91602 3.4375 2.91602 3C2.91602 2.59375 3.22852 2.25 3.66602 2.25C4.07227 2.25 4.41602 2.59375 4.41602 3ZM14.916 3C14.916 2.59375 15.2285 2.25 15.666 2.25C16.0723 2.25 16.416 2.59375 16.416 3C16.416 3.4375 16.0723 3.75 15.666 3.75C15.2285 3.75 14.916 3.4375 14.916 3ZM4.41602 15C4.41602 15.4375 4.07227 15.75 3.66602 15.75C3.22852 15.75 2.91602 15.4375 2.91602 15C2.91602 14.5938 3.22852 14.25 3.66602 14.25C4.07227 14.25 4.41602 14.5938 4.41602 15ZM14.916 15C14.916 14.5938 15.2285 14.25 15.666 14.25C16.0723 14.25 16.416 14.5938 16.416 15C16.416 15.4375 16.0723 15.75 15.666 15.75C15.2285 15.75 14.916 15.4375 14.916 15Z" fill="#D7282F"/>
</svg>
