<svg width="13" height="16" viewBox="0 0 13 16" fill="none" xmlns="http://www.w3.org/2000/svg">
<path d="M9.5 0C11.1562 0 12.5 1.34375 12.5 3V14C12.5 15.125 11.5938 16 10.5 16H2.5C1.375 16 0.5 15.125 0.5 14V3C0.5 1.34375 1.8125 0 3.5 0H9.5ZM11.5 14V6H9.5V11.5C9.5 11.7812 9.25 12 9 12C8.71875 12 8.5 11.7812 8.5 11.5V6H1.5V14C1.5 14.5625 1.9375 15 2.5 15H10.5C11.0312 15 11.5 14.5625 11.5 14ZM11.5 5V3C11.5 1.90625 10.5938 1 9.5 1H3.5C2.375 1 1.5 1.90625 1.5 3V5H8.5V3.5C8.5 3.25 8.71875 3 9 3C9.25 3 9.5 3.25 9.5 3.5V5H11.5Z" fill="#D7282F"/>
</svg>
