<svg width="15" height="17" viewBox="0 0 15 17" fill="none" xmlns="http://www.w3.org/2000/svg">
<path d="M3.96875 0C4.25 0 4.46875 0.25 4.46875 0.5V0.625C4.46875 0.875 4.59375 1.09375 4.78125 1.25L5.78125 2C6.21875 2.3125 6.46875 2.84375 6.46875 3.375V3.5C6.46875 3.78125 6.25 4 5.96875 4C5.71875 4 5.46875 3.78125 5.46875 3.5V3.375C5.46875 3.15625 5.375 2.9375 5.1875 2.78125L4.1875 2.03125C3.75 1.71875 3.46875 1.1875 3.46875 0.625V0.5C3.46875 0.25 3.71875 0 3.96875 0ZM13.5 5C14.0312 5 14.5 5.46875 14.5 6C14.5 8.53125 12.9375 10.6875 10.75 11.5625L12.4375 15.3125C12.5625 15.5625 12.4375 15.8438 12.1875 15.9688C11.9375 16.0938 11.6562 15.9688 11.5312 15.7188L10.9688 14.5H5.40625C5.1875 15.375 4.40625 16 3.5 16C2.375 16 1.5 15.125 1.5 14C1.5 12.9062 2.375 12 3.5 12C3.65625 12 3.84375 12.0312 4 12.0938L4.21875 11.5625C2.03125 10.6875 0.5 8.53125 0.5 6C0.5 5.46875 0.9375 5 1.5 5H13.5ZM8.5 11C11.25 11 13.5 8.78125 13.5 6H1.46875C1.46875 8.78125 3.71875 11 6.46875 11H8.5ZM4.875 12.5625C5.125 12.8125 5.3125 13.1562 5.40625 13.5H10.5312L9.78125 11.875C9.375 11.9688 8.9375 12 8.5 12H6.46875C6.03125 12 5.59375 11.9688 5.1875 11.875L4.875 12.5625ZM3.46875 13C2.9375 13 2.46875 13.4688 2.46875 14C2.46875 14.5625 2.9375 15 3.46875 15C4.03125 15 4.46875 14.5625 4.46875 14C4.46875 13.4688 4.03125 13 3.46875 13ZM7.46875 0.625C7.46875 0.875 7.59375 1.09375 7.78125 1.25L8.78125 2C9.21875 2.3125 9.5 2.84375 9.5 3.375V3.5C9.5 3.78125 9.25 4 9 4C8.71875 4 8.5 3.78125 8.5 3.5V3.375C8.5 3.15625 8.375 2.9375 8.1875 2.78125L7.1875 2.03125C6.75 1.71875 6.46875 1.1875 6.46875 0.625V0.5C6.46875 0.25 6.71875 0 6.96875 0C7.25 0 7.46875 0.25 7.46875 0.5V0.625Z" fill="#D7282F"/>
</svg>
