<svg width="20" height="14" viewBox="0 0 20 14" fill="none" xmlns="http://www.w3.org/2000/svg">
<path d="M2.25 1.75C2.25 0.8125 3.03125 0 4 0C4.9375 0 5.75 0.8125 5.75 1.75C5.75 2.71875 4.9375 3.5 4 3.5C3.03125 3.5 2.25 2.71875 2.25 1.75ZM4 2.5C4.40625 2.5 4.75 2.1875 4.75 1.75C4.75 1.34375 4.40625 1 4 1C3.5625 1 3.25 1.34375 3.25 1.75C3.25 2.1875 3.5625 2.5 4 2.5ZM0 7.75C0 5.96875 1.4375 4.5 3.25 4.5H4.75C5.15625 4.5 5.5625 4.59375 5.90625 4.75C6.1875 4.84375 6.3125 5.125 6.1875 5.375C6.09375 5.65625 5.8125 5.78125 5.5625 5.65625C5.3125 5.5625 5.03125 5.5 4.75 5.5H3.25C3.15625 5.5 3.0625 5.53125 3 5.53125V12H5V11C5 10.75 5.21875 10.5 5.5 10.5C5.75 10.5 6 10.75 6 11V12.25C6 12.6875 5.65625 13 5.25 13H2.75C2.3125 13 2 12.6875 2 12.25V10.75C0.8125 10.2812 0 9.125 0 7.75ZM2 9.625V5.90625C1.375 6.28125 1 6.96875 1 7.75C1 8.53125 1.375 9.21875 2 9.625ZM16 3.5C15.0312 3.5 14.25 2.71875 14.25 1.75C14.25 0.8125 15.0312 0 16 0C16.9375 0 17.75 0.8125 17.75 1.75C17.75 2.71875 16.9375 3.5 16 3.5ZM16.75 1.75C16.75 1.34375 16.4062 1 16 1C15.5625 1 15.25 1.34375 15.25 1.75C15.25 2.1875 15.5625 2.5 16 2.5C16.4062 2.5 16.75 2.1875 16.75 1.75ZM18 10.75V12.25C18 12.6875 17.6562 13 17.25 13H14.75C14.3125 13 14 12.6875 14 12.25V11C14 10.75 14.2188 10.5 14.5 10.5C14.75 10.5 15 10.75 15 11V12H17V5.53125C16.9062 5.53125 16.8125 5.5 16.75 5.5H15.25C14.9375 5.5 14.6562 5.5625 14.4062 5.65625C14.1562 5.78125 13.875 5.65625 13.7812 5.375C13.6562 5.125 13.7812 4.84375 14.0625 4.75C14.4062 4.59375 14.8125 4.5 15.25 4.5H16.75C18.5312 4.5 20 5.96875 20 7.75C20 9.125 19.1562 10.2812 18 10.75ZM19 7.75C19 6.96875 18.5938 6.28125 18 5.90625V9.625C18.5938 9.21875 19 8.53125 19 7.75ZM12 2C12 3.125 11.0938 4 10 4C8.875 4 8 3.125 8 2C8 0.90625 8.875 0 10 0C11.0938 0 12 0.90625 12 2ZM10 1C9.4375 1 9 1.46875 9 2C9 2.5625 9.4375 3 10 3C10.5312 3 11 2.5625 11 2C11 1.46875 10.5312 1 10 1ZM10.5 5C12.2812 5 13.75 6.46875 13.75 8.25C13.75 9.53125 13.0312 10.5938 12 11.1562V13.25C12 13.6875 11.6562 14 11.25 14H8.75C8.3125 14 8 13.6875 8 13.25V11.1562C6.9375 10.5938 6.25 9.53125 6.25 8.25C6.25 6.46875 7.6875 5 9.5 5H10.5ZM7.25 8.25C7.25 8.9375 7.53125 9.53125 8 9.9375V6.59375C7.53125 7 7.25 7.59375 7.25 8.25ZM11 13V6.0625C10.8125 6.03125 10.6562 6 10.5 6H9.5C9.3125 6 9.15625 6.03125 9 6.0625V13H11ZM12.75 8.25C12.75 7.59375 12.4375 7 12 6.59375V9.9375C12.4375 9.53125 12.75 8.9375 12.75 8.25Z" fill="#D7282F"/>
</svg>
