<svg width="17" height="17" viewBox="0 0 17 17" fill="none" xmlns="http://www.w3.org/2000/svg">
<path d="M15 10.5312C15.7188 10.8438 16.125 11.625 15.9062 12.4062L15.25 15.25C15.125 16 14.4688 16.5 13.6875 16.5C6.125 16.5 0 10.375 0 2.8125C0 2.03125 0.5 1.375 1.25 1.21875L4.09375 0.5625C4.875 0.375 5.65625 0.78125 5.96875 1.5L7.3125 4.625C7.59375 5.28125 7.375 6.0625 6.84375 6.53125L5.78125 7.375C6.59375 8.75 7.75 9.90625 9.15625 10.7188L10 9.6875C10.4688 9.125 11.25 8.90625 11.9375 9.21875L15 10.5312ZM14.4688 12.0625C14.5 12 14.4688 11.9375 14.4062 11.875L11.3438 10.5625C11.2812 10.5312 11.2188 10.5625 11.1875 10.5938L9.9375 12.125C9.71875 12.4062 9.3125 12.4688 9 12.3125C6.90625 11.2812 5.1875 9.5625 4.15625 7.46875C4 7.15625 4.09375 6.78125 4.34375 6.5625L5.875 5.3125C5.9375 5.28125 5.9375 5.21875 5.90625 5.15625L4.59375 2.09375C4.5625 2.0625 4.53125 2 4.46875 2L4.4375 2.03125L1.59375 2.6875C1.53125 2.6875 1.46875 2.75 1.46875 2.8125C1.46875 9.53125 6.96875 15 13.6875 15C13.75 15 13.8125 14.9375 13.8125 14.9062L14.4688 12.0625Z" fill="#111110"/>
</svg>
