<svg width="65" height="65" viewBox="0 0 65 65" fill="none" xmlns="http://www.w3.org/2000/svg">
<path d="M24.4703 28.4585C25.7825 28.4585 26.8549 29.5217 26.8549 30.8225C26.8549 32.1233 25.7825 33.1865 24.4703 33.1865H20.6854V28.4585M24.4703 28.4585H20.6854M24.4703 28.4585C25.7825 28.4585 26.8548 27.3954 26.8548 26.0946C26.8548 24.7938 25.7824 23.7307 24.4703 23.7307H20.6853L20.6854 28.4585M30.2487 23.7306V30.1346C30.2487 31.8231 31.6239 33.1865 33.3272 33.1865C35.0304 33.1865 36.4056 31.8231 36.4056 30.1346V23.7306M46.5619 23.7306L42.8905 28.5461M42.8905 28.5461V33.1865M42.8905 28.5461L39.2065 23.7306M51.2553 34.4248C51.2553 35.1378 51.0912 35.8132 50.7884 36.4261M36.8976 38.9777H20.5844C18.0485 38.9777 16.0046 36.9389 16.0046 34.4373V22.5049C16.0046 19.9908 18.0611 17.9646 20.5844 17.9646H46.6628C49.1988 17.9646 51.2426 20.0033 51.2426 22.5049V34.4373M15.5378 17.7644L11.9294 14.1872M18.5657 12.9614V16.1009M10.693 20.7663H13.8598M52.3529 40.8162L42.2345 37.8144C41.8938 37.7143 41.5279 37.9019 41.427 38.2396C41.3891 38.3647 41.3891 38.4898 41.427 38.6024L44.455 48.6336C44.5559 48.9713 44.9092 49.1715 45.2498 49.0714C45.3507 49.0464 45.4517 48.9838 45.5274 48.9088L47.3316 47.1202L50.9399 50.7099C51.4193 51.1852 52.2015 51.1852 52.681 50.7099L54.4473 48.9588C54.9267 48.4835 54.9267 47.708 54.4473 47.2327L50.8263 43.6555L52.6305 41.8669C52.8828 41.6167 52.8955 41.2165 52.6305 40.9663C52.5548 40.8913 52.4539 40.8287 52.3529 40.8037V40.8162Z" stroke="#ADADAD" stroke-width="1.5" stroke-linecap="round" stroke-linejoin="round"/>
</svg>
