<svg width="117" height="31" viewBox="0 0 117 31" fill="none" xmlns="http://www.w3.org/2000/svg">
<path fill-rule="evenodd" clip-rule="evenodd" d="M23.0783 21.0831C23.0783 21.326 22.8867 21.5547 22.6472 21.5547H20.8317C20.597 21.5547 20.3767 21.3308 20.3767 21.0831V16.7817C20.3767 16.5388 20.5922 16.3339 20.8317 16.3339H22.6472C22.8867 16.3339 23.0783 16.5388 23.0783 16.7817V21.0831ZM26.6899 24.3175C26.6899 24.5652 26.5031 24.77 26.2349 24.77H20.3815C18.4032 24.77 16.7938 23.1362 16.7938 21.1736V16.6769C16.7938 14.7096 18.408 13.0995 20.3815 13.0995H22.652C22.8915 13.0995 23.0831 12.8995 23.0831 12.6422V11.4037C23.0831 11.1417 22.8915 10.9512 22.652 10.9512H18.135C17.8811 10.9512 17.6895 10.7273 17.6895 10.4987V8.16934C17.6895 7.91211 17.8811 7.7311 18.135 7.7311H23.0831C25.0757 7.7311 26.6947 9.32686 26.6947 11.318V24.3223L26.6899 24.3175Z" fill="#D7282F"/>
<path fill-rule="evenodd" clip-rule="evenodd" d="M34.8042 21.0831C34.8042 21.326 34.6222 21.5547 34.3587 21.5547H32.5625C32.3086 21.5547 32.1122 21.3308 32.1122 21.0831V11.4037C32.1122 11.1418 32.3086 10.9512 32.5625 10.9512H34.3587C34.6222 10.9512 34.8042 11.1418 34.8042 11.4037V21.0831ZM28.5006 11.3132C28.5006 9.32687 30.1148 7.72635 32.117 7.72635H34.3635C34.627 7.72635 34.809 7.52628 34.809 7.26905V2.79139C34.809 2.54369 35.0245 2.31981 35.2736 2.31981H37.9848C38.2195 2.31981 38.4302 2.54369 38.4302 2.79139V24.3175C38.4302 24.5652 38.2243 24.77 37.9848 24.77H32.117C30.1148 24.77 28.5006 23.1362 28.5006 21.1736V11.3132Z" fill="#D7282F"/>
<path fill-rule="evenodd" clip-rule="evenodd" d="M51.9524 21.0831C51.9524 21.326 51.7561 21.5547 51.5118 21.5547H49.7107C49.4568 21.5547 49.2557 21.3308 49.2557 21.0831V16.7817C49.2557 16.5388 49.4568 16.3339 49.7107 16.3339H51.5118C51.7561 16.3339 51.9524 16.5388 51.9524 16.7817V21.0831ZM55.5545 24.3175C55.5545 24.5652 55.3581 24.77 55.1186 24.77H49.2509C47.2487 24.77 45.6344 23.1362 45.6344 21.1736V16.6769C45.6344 14.7096 47.2535 13.0995 49.2509 13.0995H51.507C51.7513 13.0995 51.9477 12.8995 51.9477 12.6422V11.4037C51.9477 11.1417 51.7513 10.9512 51.507 10.9512H46.9996C46.7457 10.9512 46.5493 10.7273 46.5493 10.4987V8.16934C46.5493 7.91211 46.7457 7.7311 46.9996 7.7311H51.9477C53.9307 7.7311 55.5497 9.32686 55.5497 11.318V24.3223L55.5545 24.3175Z" fill="#D7282F"/>
<path fill-rule="evenodd" clip-rule="evenodd" d="M40.2313 8.16457C40.2313 7.90735 40.4325 7.72633 40.672 7.72633H43.4071C43.6274 7.72633 43.8429 7.91211 43.8429 8.16457V24.3127C43.8429 24.5604 43.6274 24.7653 43.3879 24.7653H40.6768C40.442 24.7653 40.2361 24.5604 40.2361 24.3127V8.16457H40.2313Z" fill="#D7282F"/>
<path d="M15.6681 15.4051C12.8851 12.728 3.60688 11.7753 3.60688 8.05502C3.60688 5.13978 8.62202 3.58689 12.3247 3.58689C13.6467 3.58689 16.377 3.81077 16.6357 3.8203C16.9375 3.84888 17.1291 3.61547 17.1291 3.35348V0.690704C17.1291 0.504929 16.9854 0.281045 16.7555 0.252464C16.4968 0.23341 15.0885 0 12.5402 0C6.19348 0 0 3.04385 0 8.30272C0 14.8096 10.8685 15.6051 13.3593 18.0774C14.4227 19.1491 14.1545 20.1495 13.4168 20.8973C13.0863 21.2451 12.4828 21.7024 10.8063 21.7024C8.31067 21.7024 4.6032 19.8637 3.53024 19.2778C3.31948 19.1539 3.04645 19.2301 2.92191 19.454C2.89796 19.4921 1.56633 21.912 1.56633 21.912C1.437 22.1692 1.56633 22.4121 1.73877 22.5264C3.32427 23.3076 7.6209 25.294 10.5715 25.294C13.7761 25.294 15.0837 24.3127 16.1519 23.2267C17.9769 21.4356 18.5661 18.1583 15.6729 15.4003" fill="#221E20"/>
<path d="M40.0493 4.1347C40.0493 3.02957 40.945 2.14833 42.0275 2.14833C43.1101 2.14833 44.0106 3.02957 44.0106 4.1347C44.0106 5.23982 43.134 6.10677 42.0275 6.10677C40.921 6.10677 40.0493 5.21124 40.0493 4.1347Z" fill="#221E20"/>
<path fill-rule="evenodd" clip-rule="evenodd" d="M83.6317 7.72955H78.6836C78.4297 7.72955 78.2286 7.91056 78.2286 8.16779V10.4971C78.2286 10.7258 78.4297 10.9497 78.6836 10.9497H83.191C83.4401 10.9497 83.6365 11.1402 83.6365 11.4022V21.0958C83.6365 21.3578 83.4401 21.5484 83.191 21.5484H76.5329C76.279 21.5484 76.0778 21.7722 76.0778 22.0009V24.3302C76.0778 24.5827 76.279 24.7685 76.5329 24.7685H86.7979C87.0422 24.7685 87.2386 24.5589 87.2386 24.3112V11.3117C87.2386 9.32531 85.6147 7.72478 83.6365 7.72478" fill="#D7282F"/>
<path fill-rule="evenodd" clip-rule="evenodd" d="M116.941 21.3007V8.22971C116.941 7.97248 116.726 7.79147 116.506 7.79147H113.77C113.536 7.79147 113.335 7.97725 113.335 8.22971V20.9863C113.291 21.1339 113.181 21.2578 113.033 21.3007H110.872C110.69 21.2435 110.566 21.0768 110.556 20.8862V8.21542C110.556 7.96296 110.336 7.77718 110.12 7.77718H107.385C107.151 7.77718 106.945 7.96296 106.945 8.21542V11.1926V11.1735L106.94 20.8529C106.94 21.0577 106.811 21.2435 106.614 21.3054H104.808C104.617 21.2483 104.487 21.0577 104.487 20.8529V11.1735V11.1878L104.483 8.21542C104.483 7.96296 104.267 7.77718 104.047 7.77718H101.316C101.082 7.77718 100.876 7.96296 100.876 8.21542V21.0149C100.828 21.1482 100.722 21.2626 100.584 21.3054H93.1973C92.9435 21.3054 92.7662 21.0958 92.7519 20.8577V0.479548C92.7519 0.222321 92.5363 0.0413094 92.316 0.0413094H89.5857C89.3605 0.0413094 89.1689 0.208031 89.1498 0.441441V21.3007C89.1498 21.3007 89.1498 21.315 89.1498 21.3483V21.4102C89.2073 22.0057 89.6288 24.8352 92.4405 24.8352H113.651C116.673 24.8352 116.927 21.5579 116.946 21.3197V21.3054L116.941 21.3007Z" fill="#D7282F"/>
<path fill-rule="evenodd" clip-rule="evenodd" d="M66.0524 21.3007C65.7985 21.3007 65.626 21.0911 65.6069 20.8529V0.479548C65.6069 0.222321 65.3913 0.0413094 65.171 0.0413094H62.4407C62.2155 0.0413094 62.0239 0.208031 62 0.441441V21.3007C62 21.3007 62 21.315 62 21.3483V21.4102H62.0048C62.0623 22.0057 62.4838 24.8352 65.2955 24.8352H71.3597C74.3822 24.8352 74.636 21.5579 74.6552 21.3197V8.23447C74.6552 7.97725 74.4397 7.79624 74.2193 7.79624H71.4842C71.2495 7.79624 71.0435 7.98201 71.0435 8.23447V20.991C71.0004 21.1387 70.8951 21.2626 70.7418 21.3054H66.0476L66.0524 21.3007Z" fill="#D7282F"/>
<path d="M64.1459 28.322C64.1459 27.2169 65.0416 26.3356 66.1242 26.3356C67.2067 26.3356 68.1025 27.2169 68.1025 28.322C68.1025 29.4271 67.2211 30.2941 66.1242 30.2941C65.0273 30.2941 64.1459 29.3985 64.1459 28.322Z" fill="#221E20"/>
<path d="M68.7108 28.3219C68.7108 27.2168 69.6065 26.3356 70.6891 26.3356C71.7716 26.3356 72.6674 27.2168 72.6674 28.3219C72.6674 29.427 71.786 30.294 70.6891 30.294C69.5922 30.294 68.7108 29.3985 68.7108 28.3219Z" fill="#221E20"/>
</svg>
